<?xml version="1.0" encoding="utf-8"?>
<!-- Generator: Adobe Illustrator 18.0.0, SVG Export Plug-In . SVG Version: 6.00 Build 0)  -->
<!DOCTYPE svg PUBLIC "-//W3C//DTD SVG 1.1//EN" "http://www.w3.org/Graphics/SVG/1.1/DTD/svg11.dtd">
<svg version="1.1" id="Layer_1" xmlns="http://www.w3.org/2000/svg" xmlns:xlink="http://www.w3.org/1999/xlink" x="0px" y="0px"
	 viewBox="0 0 45.7 11" enable-background="new 0 0 45.7 11" xml:space="preserve">
<g>
	<path fill="#004D71" d="M28.7,2.2h-0.2v0.9h0.2C29,3.1,29,2.9,29,2.6C29,2.3,29,2.2,28.7,2.2L28.7,2.2z"/>
	<path fill="#004D71" d="M38.7,2.2h-0.2v0.9h0.2c0.3,0,0.3-0.2,0.3-0.5C39.1,2.3,39,2.2,38.7,2.2L38.7,2.2z"/>
	<path fill="#004D71" d="M41.4,3.5v1.2H41V3.5l-0.6-1.7h0.4l0.3,1.2h0l0.3-1.2H42L41.4,3.5L41.4,3.5z M39.1,4.7l-0.4-1.3h-0.3v1.3
		h-0.4V1.8h0.7c0.5,0,0.7,0.3,0.7,0.9c0,0.3-0.1,0.6-0.4,0.7l0.5,1.3H39.1L39.1,4.7z M37,2.2h-0.8V3h0.7v0.4h-0.7v0.9H37v0.4h-1.3
		V1.8H37V2.2L37,2.2z M34.6,2.6h-0.4V2.5c0-0.2-0.1-0.3-0.3-0.3c-0.2,0-0.3,0.1-0.3,0.3V4c0,0.2,0.1,0.3,0.3,0.3
		c0.1,0,0.3-0.1,0.3-0.3V3.9h0.4V4c0,0.4-0.3,0.7-0.7,0.7c-0.3,0-0.7-0.2-0.7-0.7V2.4c0-0.4,0.3-0.7,0.7-0.7c0.4,0,0.7,0.3,0.7,0.7
		V2.6L34.6,2.6z M32,4c0,0.5-0.4,0.7-0.7,0.7c-0.3,0-0.7-0.2-0.7-0.7V2.5c0-0.5,0.4-0.7,0.7-0.7C31.6,1.7,32,2,32,2.5V4L32,4z
		 M29.1,4.7l-0.4-1.3h-0.3v1.3H28V1.8h0.7c0.5,0,0.7,0.3,0.7,0.9c0,0.3-0.1,0.6-0.4,0.7l0.5,1.3H29.1L29.1,4.7z M26.7,2.4h-0.5V2.2
		c0-0.2-0.1-0.3-0.3-0.3c-0.2,0-0.3,0.1-0.3,0.3v1.7c0,0.2,0.1,0.3,0.3,0.3c0.2,0,0.3-0.1,0.3-0.3V3.3h-0.4V2.9h0.8v1
		c0,0.5-0.4,0.8-0.8,0.8s-0.8-0.3-0.8-0.8V2.2c0-0.5,0.4-0.8,0.8-0.8s0.8,0.3,0.8,0.8V2.4L26.7,2.4z M22,4.7h-0.4l-0.3-1.9h0L21,4.7
		h-0.4l-0.4-2.9h0.4l0.2,1.9h0l0.3-1.9h0.3l0.3,1.9h0L22,1.8h0.4L22,4.7L22,4.7z M19.2,2.2h-0.8V3h0.7v0.4h-0.7v0.9h0.8v0.4h-1.3
		V1.8h1.3V2.2L19.2,2.2z M16.6,4.7h-0.4V1.8h0.4V4.7L16.6,4.7z M14.4,4.7h-0.4l-0.6-2.9h0.4l0.3,2.1h0l0.3-2.1h0.4L14.4,4.7
		L14.4,4.7z M12.4,2.2h-0.8V3h0.7v0.4h-0.7v0.9h0.8v0.4h-1.3V1.8h1.3V2.2L12.4,2.2z M9.7,4.7L9.2,3.4L9,3.8v0.9H8.5V1.8H9v1.3h0
		l0.6-1.3H10L9.4,2.9l0.7,1.8H9.7L9.7,4.7z M7.2,4.7L7.1,4.1H6.5L6.4,4.7H6l0.7-2.9H7l0.7,2.9H7.2L7.2,4.7z M5.1,4.7H3.7V1.4h0.5
		v2.8h0.9V4.7L5.1,4.7z M45.7,1.8V1.2c0-0.6-0.5-1.2-1.2-1.2H1.2C0.5,0,0,0.5,0,1.2v0.6h2.5v0.4H0V3h2.5v0.4H0l0,0.9h2.5v0.4H0
		l0,0.6c0,0.6,0.5,1.2,1.2,1.2h43.4c0.6,0,1.2-0.5,1.2-1.2V4.7h-2.6V4.3h2.6V3.4h-2.6V3h2.6V2.1h-2.6V1.8H45.7L45.7,1.8z"/>
	<path fill="#004D71" d="M31.3,2.2c-0.2,0-0.3,0.1-0.3,0.3V4c0,0.2,0.1,0.3,0.3,0.3c0.2,0,0.3-0.1,0.3-0.3V2.5
		C31.6,2.2,31.5,2.2,31.3,2.2L31.3,2.2z"/>
	<polygon fill="#004D71" points="6.8,2.6 6.6,3.7 7,3.7 6.8,2.6 6.8,2.6 	"/>
	<path fill="#004D71" d="M13.9,7.7c-0.3,0-0.8,0.6-1.1,1.5c-0.1,0.5-0.2,0.9-0.3,1.2c0,0.3,0,0.5,0.2,0.5c0.3,0,0.8-0.8,1-1.5
		C14,9,14.1,8.6,14.1,8.2C14.1,7.9,14.1,7.7,13.9,7.7L13.9,7.7z M12.8,11c-0.5,0-0.4-1.1-0.1-2C13,8.2,13.5,7.6,14,7.6
		c0.4,0,0.4,0.8,0.2,1.6C13.9,10.1,13.3,11,12.8,11L12.8,11z"/>
	<path fill="#004D71" d="M14.9,10.7c-0.1,0-0.2-0.1-0.2-0.1c0,0,0-0.2,0-0.3c0-0.2,0.3-0.6,0.4-0.9c-0.2,0.2-0.6,0.6-0.9,1.4
		c0,0,0,0,0,0c0,0-0.2,0-0.2,0c0,0-0.1-0.3,0-0.6C14,9.6,14.3,9,14.4,9c0,0,0.1,0,0.1,0c0,0,0.1,0.1,0.1,0.1c0,0.1-0.3,0.7-0.3,1
		c0,0,0,0.1,0,0.1c0.3-0.9,0.8-1.4,0.9-1.4c0,0,0.2,0.2,0.2,0.3c0,0.1-0.6,1.2-0.3,1.2c0.3,0,0.4-0.6,0.4-0.6c0,0,0.1,0.1,0.1,0.1
		C15.5,10.1,15.1,10.7,14.9,10.7L14.9,10.7z"/>
	<path fill="#004D71" d="M18,9.5c-0.3,0.9-0.5,1.3-0.4,1.5c-0.2,0-0.2-0.2-0.2-0.2c0-0.1,0.1-0.4,0.2-0.8c-0.1,0-0.1,0-0.2,0
		c-0.1,0-0.2,0-0.4,0c-0.1,0-0.2,0-0.3,0c-0.2,0.5-0.2,0.8-0.2,0.9c-0.2,0-0.2-0.2-0.2-0.2c0-0.1,0.1-0.3,0.2-0.7c0,0,0,0-0.1,0
		c0,0-0.3,0-0.3-0.2c0.1,0,0.2,0,0.4,0c0.1-0.2,0.1-0.4,0.2-0.6c0.2-0.5,0.3-0.8,0.4-1.1c0.1-0.3,0.1-0.5,0.1-0.6
		c0.2,0,0.2,0.2,0.2,0.2c0,0.1-0.1,0.5-0.5,1.6c-0.1,0.2-0.1,0.3-0.2,0.4c0.1,0,0.1,0,0.2,0c0.2,0,0.3,0,0.3,0c0.1,0,0.1,0,0.2,0
		c0.1,0,0.1,0,0.2,0c0.1-0.2,0.1-0.4,0.2-0.6c0.2-0.5,0.3-0.8,0.4-1.1c0.1-0.3,0.1-0.5,0.1-0.6c0.2,0,0.2,0.2,0.2,0.2
		C18.5,8,18.4,8.4,18,9.5L18,9.5z"/>
	<path fill="#004D71" d="M18.1,10.3C18,10.3,18,10.3,18.1,10.3c0,0.1,0.1,0.1,0.1,0.1c0.2,0,0.7-0.8,0.7-1.3
		C18.4,9.4,18.1,9.9,18.1,10.3L18.1,10.3z M18.8,10.7c-0.2,0-0.2-0.2-0.2-0.4c0,0,0-0.1,0-0.2c-0.2,0.3-0.4,0.6-0.5,0.6
		c-0.1,0-0.1-0.1-0.2-0.1c0,0,0,0,0,0c-0.3-0.8,0.6-1.7,0.9-1.7C18.9,8.9,19,9,19,9c0,0,0,0,0,0c0,0.1,0,0.1,0,0.2
		c0.1,0,0.1,0.1,0.1,0.1c0,0-0.3,0.7-0.3,0.8c0,0,0,0.2,0.1,0.2c0.2,0,0.6-0.7,0.6-0.8c0,0,0.1,0,0.1,0.1
		C19.6,9.6,19,10.7,18.8,10.7L18.8,10.7z"/>
	<path fill="#004D71" d="M19.6,10.7c-0.4,0,0-0.7,0.2-1.1c-0.1,0-0.1,0-0.2,0c-0.1,0.2-0.2,0.3-0.3,0.6c0,0-0.2,0.1-0.2,0.1
		c0,0,0.2-0.2,0.5-1.3c0,0,0,0,0,0c0,0,0.3,0.1,0.3,0.2c0,0.1-0.1,0.1-0.1,0.3c0,0.1,0.3,0,0.4,0.2l0,0c0,0,0,0,0,0
		c0,0-0.3,0.4-0.4,0.5c-0.1,0.2-0.2,0.4,0,0.4c0.2,0,0.5-0.5,0.5-0.7c0,0,0.1,0,0.1,0.1C20.3,10.1,20,10.7,19.6,10.7L19.6,10.7z"/>
	<path fill="#004D71" d="M20.6,10.7c-0.4,0,0-0.7,0.2-1.1c-0.1,0-0.1,0-0.2,0c-0.1,0.2-0.2,0.3-0.3,0.6c0,0-0.2,0.1-0.2,0.1
		c0,0,0.2-0.2,0.5-1.3c0,0,0,0,0,0c0,0,0.3,0.1,0.3,0.2c0,0.1-0.1,0.1-0.1,0.3c0,0.1,0.3,0,0.4,0.2l0,0c0,0,0,0,0,0
		c0,0-0.3,0.4-0.4,0.5c-0.1,0.2-0.2,0.4,0,0.4c0.2,0,0.5-0.5,0.5-0.7c0,0,0.1,0,0.1,0.1C21.3,10.1,20.9,10.7,20.6,10.7L20.6,10.7z"
		/>
	<path fill="#004D71" d="M21.9,8.9c-0.1,0-0.2-0.1-0.2-0.1c0,0,0.1-0.2,0.1-0.2c0.1,0,0.2,0,0.2,0c0,0,0.1,0,0.1,0.1
		C22,8.7,22,8.9,21.9,8.9L21.9,8.9z M21.5,10.7c0,0-0.5,0-0.2-0.9c0-0.1,0.3-0.7,0.3-0.7c0,0,0.1,0,0.1,0c0,0,0.1,0.1,0.1,0.1
		c0,0-0.4,0.8-0.4,0.9c0,0.2-0.1,0.3,0.1,0.3c0.2,0,0.4-0.5,0.5-0.6c0,0,0.1,0,0.1,0.1C22,10.1,21.7,10.7,21.5,10.7L21.5,10.7z"/>
	<path fill="#004D71" d="M22.3,10c0-0.1-0.1-0.2-0.1-0.4c-0.1,0.2-0.1,0.3-0.2,0.5c0,0.1,0.1,0.4,0.2,0.4c0,0,0.1,0,0.2-0.1
		C22.4,10.3,22.3,10.2,22.3,10L22.3,10z M22.2,10.7c-0.2,0-0.2-0.3-0.2-0.5c0,0-0.1,0-0.1,0c0,0,0.2-0.1,0.5-1.2c0,0,0-0.1,0-0.2
		c0,0,0,0,0,0c0.1,0,0.2,0.1,0.2,0.2c0,0.1-0.1,0.2-0.1,0.3c0,0.2,0.2,0.7,0.2,0.9C22.7,10.4,22.4,10.7,22.2,10.7L22.2,10.7z"/>
	<path fill="#004D71" d="M23.6,9.4c0-0.1,0-0.1,0-0.1c0,0,0,0,0,0c-0.1,0-0.1,0.1-0.1,0.1C23.5,9.4,23.6,9.4,23.6,9.4
		C23.6,9.4,23.6,9.4,23.6,9.4L23.6,9.4z M23.4,9.5C23.3,9.5,23.3,9.5,23.4,9.5c-0.3,0.2-0.5,0.6-0.4,0.9c0,0,0,0.1,0,0.1
		c0,0,0.1,0,0.2,0c0.3-0.2,0.5-0.6,0.5-0.9C23.5,9.5,23.4,9.5,23.4,9.5L23.4,9.5z M23.8,9.5c0,0.6-0.5,1.1-0.7,1.2
		c0,0-0.1,0-0.1-0.1c0,0-0.1,0-0.1,0c-0.4-0.7,0.3-1.5,0.6-1.6c0,0,0.1,0,0.1,0c0,0,0.1,0,0.1,0c0,0.1,0.1,0.2,0.1,0.3
		c0.2,0,0.3-0.1,0.3-0.1c0.2-0.1,0.1,0,0,0.1C24.1,9.4,23.9,9.5,23.8,9.5L23.8,9.5z"/>
	<path fill="#004D71" d="M24.8,10.7c-0.1,0-0.2-0.1-0.2-0.1c0,0,0-0.2,0-0.3c0-0.2,0.3-0.6,0.4-0.9c-0.2,0.2-0.6,0.6-0.9,1.4
		c0,0,0,0,0,0c0,0-0.2,0-0.2,0c0,0-0.1-0.3,0-0.6c0.1-0.5,0.3-1,0.4-1.1c0,0,0.1,0,0.1,0c0,0,0.1,0.1,0.1,0.1c0,0.1-0.3,0.7-0.3,1
		c0,0,0,0.1,0,0.1c0.3-0.9,0.8-1.4,0.9-1.4c0,0,0.2,0.2,0.2,0.3c0,0.1-0.6,1.2-0.3,1.2c0.3,0,0.4-0.6,0.4-0.6c0,0,0.1,0.1,0.1,0.1
		C25.3,10.1,24.9,10.7,24.8,10.7L24.8,10.7z"/>
	<path fill="#004D71" d="M27.7,7.7c-0.2,0-0.8,1.2-1.2,2.1c0,0,0.1,0,0.2,0c0.2,0,0.3,0,0.4,0c0.1,0,0.1,0,0.2,0
		c0.1,0,0.2,0,0.2,0.1c0.1-0.5,0.2-1,0.3-1.4C27.8,8,27.8,7.7,27.7,7.7L27.7,7.7z M27.6,10.4c0,0.2-0.1,0.3-0.1,0.4
		c0,0.1,0,0.2,0,0.2c-0.2,0-0.2-0.2-0.2-0.2c0,0,0.1-0.4,0.2-0.8c-0.1,0-0.2,0-0.3,0c-0.1,0-0.2,0-0.5,0c-0.1,0-0.2,0-0.3,0
		c-0.2,0.5-0.3,0.9-0.3,1c-0.2,0-0.2-0.2-0.2-0.2c0,0,0.1-0.4,0.3-0.8c0,0-0.1,0-0.1,0c0,0-0.3,0-0.3-0.2c0.2,0,0.3,0,0.4,0
		c0.4-0.9,1-2.3,1.5-2.3c0.4,0,0.3,0.8,0.1,1.6C27.8,9.7,27.7,10.1,27.6,10.4L27.6,10.4z"/>
	<path fill="#004D71" d="M28.7,9.8c-0.2,0.3-0.5,0.8-0.5,0.9c0,0-0.1,0-0.1,0c0,0-0.2-0.2-0.2-0.3c0-0.1,0-0.4,0.1-0.8
		c0.1-0.4,0.2-0.5,0.2-0.5c0,0,0.3-0.1,0.3-0.1c0,0.1-0.1,0.3-0.2,0.7c-0.1,0.3-0.1,0.4-0.1,0.5c0.2-0.1,0.3-0.4,0.4-0.6
		C28.8,9.2,28.8,9,28.9,9C28.9,9,29,9,29,9C29,9.1,28.8,9.5,28.7,9.8L28.7,9.8z"/>
	<path fill="#004D71" d="M29.1,9.8c0.1,0,0.2,0,0.2,0.1c0.1-0.2,0.2-0.4,0.2-0.6C29.3,9.4,29.2,9.6,29.1,9.8L29.1,9.8z M29.2,10.7
		c-0.1,0-0.3-0.1-0.4-0.1c0,0,0,0,0,0c0,0,0,0,0,0C28.5,9.8,29.3,9,29.5,9c0.1,0,0.2,0.1,0.2,0.1c0,0,0,0,0,0c0,0.1-0.1,0.6-0.2,0.8
		c0,0-0.1,0-0.2,0.1c0,0-0.2,0-0.3-0.1c0,0,0,0.1,0,0.1c0,0-0.1,0.4,0.2,0.4c0.3,0,0.7-1,0.8-1c0,0,0.1,0,0.1,0.1
		C30,9.6,29.5,10.7,29.2,10.7L29.2,10.7z"/>
	<path fill="#004D71" d="M30.6,10.7c-0.1,0-0.2-0.1-0.2-0.1c0,0,0-0.2,0-0.3c0-0.2,0.3-0.6,0.4-0.9c-0.2,0.2-0.6,0.6-0.9,1.4
		c0,0,0,0,0,0c0,0-0.2,0-0.2,0c0,0-0.1-0.3,0-0.6C29.8,9.6,30,9,30.1,9c0,0,0.1,0,0.1,0c0,0,0.1,0.1,0.1,0.1c-0.1,0.1-0.3,0.7-0.3,1
		c0,0,0,0.1,0,0.1c0.3-0.9,0.8-1.4,0.9-1.4c0,0,0.2,0.2,0.2,0.3c0,0.1-0.6,1.2-0.3,1.2c0.3,0,0.4-0.6,0.4-0.6c0,0,0.1,0.1,0.1,0.1
		C31.2,10.1,30.8,10.7,30.6,10.7L30.6,10.7z"/>
	<path fill="#004D71" d="M32,10.7c-0.2,0-0.2-0.2-0.2-0.3c-0.1,0.2-0.3,0.3-0.4,0.3c0,0-0.5,0-0.1-1c0-0.1,0.2-0.6,0.2-0.6
		c0,0,0.1,0,0.1,0c0,0,0.1,0.1,0.1,0.1c0,0.1-0.3,0.8-0.3,0.8c0,0.2-0.1,0.4,0.1,0.4c0.1,0,0.3-0.2,0.4-0.5c0,0,0-0.2,0.1-0.3
		C31.8,9.5,32,9,32,9c0,0,0.1,0,0.1,0c0,0,0.1,0.1,0.1,0.1C32.2,9.2,32,10,32,10c0,0.2-0.1,0.4,0,0.4c0.2,0,0.4-0.5,0.5-0.7
		c0,0,0.1,0,0.1,0.1C32.5,10.1,32.2,10.7,32,10.7L32,10.7z"/>
	<path fill="#004D71" d="M32.6,9.8c0.1,0,0.2,0,0.2,0.1c0.1-0.2,0.2-0.4,0.2-0.6C32.9,9.4,32.7,9.6,32.6,9.8L32.6,9.8z M32.8,10.7
		c-0.1,0-0.3-0.1-0.4-0.1c0,0,0,0,0,0c0,0,0,0,0,0C32.1,9.8,32.9,9,33,9c0.1,0,0.2,0.1,0.2,0.1c0,0,0,0,0,0c0,0.1-0.1,0.6-0.2,0.8
		c0,0-0.1,0-0.2,0.1c0,0-0.2,0-0.3-0.1c0,0,0,0.1,0,0.1c0,0-0.1,0.4,0.2,0.4c0.3,0,0.7-1,0.8-1c0,0,0.1,0,0.1,0.1
		C33.6,9.6,33.1,10.7,32.8,10.7L32.8,10.7z"/>
	<polygon fill="#004D71" points="10.4,9.7 0,9.7 0,9.5 10.4,9.5 10.4,9.7 10.4,9.7 	"/>
	<polygon fill="#004D71" points="45.7,9.7 35.3,9.7 35.3,9.5 45.7,9.5 45.7,9.7 45.7,9.7 	"/>
</g>
</svg>
