<?xml version="1.0" encoding="utf-8"?>
<!-- Generator: Adobe Illustrator 18.0.0, SVG Export Plug-In . SVG Version: 6.00 Build 0)  -->
<!DOCTYPE svg PUBLIC "-//W3C//DTD SVG 1.1//EN" "http://www.w3.org/Graphics/SVG/1.1/DTD/svg11.dtd">
<svg version="1.1" id="Layer_1" xmlns="http://www.w3.org/2000/svg" xmlns:xlink="http://www.w3.org/1999/xlink" x="0px" y="0px"
	 viewBox="0 0 59.7 16.6" enable-background="new 0 0 59.7 16.6" xml:space="preserve">
<g>
	<g>
		<path d="M58.4,5.8c0-0.7-0.5-1-1.3-1.4c-0.9-0.4-1.2-0.6-1.2-1.1c0-0.4,0.3-0.7,0.8-0.7c0.6,0,1.1,0.4,1.3,1.3h0.1V2.4H58
			c0,0.1-0.2,0.2-0.3,0.2c-0.1,0-0.2,0-0.3-0.1c-0.2-0.1-0.5-0.1-0.7-0.1c-0.8,0-1.3,0.5-1.3,1.2c0,0.8,0.4,1.1,1.2,1.4
			c0.9,0.5,1.2,0.7,1.2,1.1c0,0.6-0.4,0.8-0.9,0.8c-0.7,0-1.2-0.4-1.4-1.3h-0.1v1.5h0.1c0-0.1,0.1-0.3,0.3-0.3c0.1,0,0.2,0,0.4,0.1
			c0.2,0.1,0.5,0.2,0.8,0.2C57.7,7.1,58.4,6.6,58.4,5.8 M55.2,2.5L55.2,2.5l-1.7-0.1v0.1c0.6,0.1,0.7,0.1,0.7,0.7v2.6l-3.1-3.4h-1.4
			v0.1c0.3,0,0.6,0.1,1,0.5v3.2c0,0.6-0.1,0.7-0.7,0.7v0.1h1.7V7C51.2,7,51,6.9,51,6.3V3.4l3.5,3.8V3.2C54.5,2.6,54.6,2.6,55.2,2.5
			 M48.3,5.3h-1.6l0.8-1.8L48.3,5.3z M50.3,7.1L50.3,7.1c-0.4-0.1-0.5-0.2-0.7-0.6l-1.9-4.2l-1.9,4.2C45.7,6.9,45.5,7,45.1,7v0.1
			h1.5V7c-0.4,0-0.6-0.1-0.6-0.3c0-0.1,0.1-0.3,0.1-0.4l0.3-0.7h1.9l0.4,0.8c0.1,0.2,0.1,0.2,0.1,0.4c0,0.2-0.2,0.3-0.5,0.3v0.1
			H50.3z M45.4,5.9L45.4,5.9C45.3,6,45,6.8,44.1,6.8l-1.2,0c-0.2,0-0.3-0.1-0.3-0.3V4.8l1,0c0.6,0,0.8,0.2,0.8,0.7h0.1V3.8h-0.1
			c0,0.5-0.2,0.7-0.8,0.7l-1,0V2.7l1.3,0c0.7,0,0.8,0.1,1,0.8h0.1l-0.1-1h-3.6v0.1c0.6,0.1,0.7,0.1,0.7,0.7v3c0,0.6-0.1,0.7-0.7,0.7
			v0.1H45C45.3,6.2,45.4,6.1,45.4,5.9 M41.4,5.9L41.4,5.9C41.3,6.1,41,6.8,40,6.8l-0.8,0c-0.5,0-0.5,0-0.5-0.2V3.2
			c0-0.6,0.2-0.7,0.7-0.7V2.5h-2v0.1c0.5,0,0.7,0.1,0.7,0.7v3C38,6.9,37.8,7,37.3,7v0.1h3.6C41.3,6.1,41.4,6.1,41.4,5.9 M31.4,4
			c0,1.4-0.6,2.9-2.1,2.9c-1.8,0-2.6-1.8-2.6-3.6c0-1.4,0.6-2.9,2.1-2.9C30.6,0.3,31.4,2.2,31.4,4 M32.7,3.6c0-2.1-1.5-3.6-3.6-3.6
			c-2.1,0-3.6,1.5-3.6,3.6c0,2.1,1.5,3.6,3.6,3.6C31.2,7.2,32.7,5.7,32.7,3.6 M25.2,2.5L25.2,2.5l-1.4-0.1v0.1
			c0.4,0,0.5,0.1,0.5,0.3c0,0.2-0.1,0.4-0.1,0.5l-1,2.5l-1-2.5c-0.1-0.1-0.1-0.4-0.1-0.5c0-0.2,0.2-0.3,0.5-0.3V2.5h-1.9v0.1
			c0.3,0,0.5,0.1,0.6,0.4l0.4,0.9l-0.8,2l-1-2.5c-0.1-0.1-0.1-0.4-0.1-0.5c0-0.2,0.1-0.3,0.5-0.3V2.5h-1.9v0.1
			c0.4,0,0.5,0.1,0.7,0.5l1.6,4.2l1.1-3l1.2,3L24.6,3C24.7,2.7,24.8,2.6,25.2,2.5 M18.9,5.9L18.9,5.9c-0.1,0.2-0.4,0.9-1.3,0.9
			l-1.2,0c-0.2,0-0.3-0.1-0.3-0.3V4.8l1,0c0.6,0,0.8,0.2,0.8,0.7H18V3.8h-0.1c0,0.5-0.2,0.7-0.8,0.7l-1,0V2.7l1.3,0
			c0.7,0,0.8,0.1,1,0.8h0.1l-0.1-1h-3.6v0.1c0.6,0.1,0.7,0.1,0.7,0.7v3c0,0.6-0.1,0.7-0.7,0.7v0.1h3.7C18.8,6.2,18.9,6.1,18.9,5.9
			 M15.5,0.2L15.5,0.2l-2.6-0.1v0.1C13.8,0.3,14,0.4,14,1.3v3.9L9.3,0.1H7.3v0.1c0.5,0,0.9,0.1,1.5,0.8v4.9c0,0.9-0.2,1-1.1,1.1v0.1
			h2.6V7C9.3,6.9,9.2,6.8,9.2,5.9V1.5l5.2,5.7V1.3C14.4,0.4,14.5,0.3,15.5,0.2"/>
		<path d="M35.9,3.7c0,0.7-0.5,1-1.1,1c-0.1,0-0.4,0-0.5-0.1V2.7c0.2,0,0.2-0.1,0.4-0.1C35.4,2.7,35.9,3.1,35.9,3.7 M39,8.7
			c-0.5-0.1-1.9-1.9-2.4-2.5l-1.1-1.4c0.7-0.1,1.2-0.4,1.2-1.1c0-0.6-0.6-1.3-1.8-1.3h-1.9v0.1c0.6,0.1,0.7,0.1,0.7,0.7v3
			c0,0.6-0.1,0.7-0.7,0.7v0.1h2V7c-0.6-0.1-0.7-0.1-0.7-0.7V4.9h0.4c0,0,2.8,4.2,4.3,4C39.3,8.9,39,8.7,39,8.7"/>
		<path d="M59.7,13.9h-0.1c0,0.2-0.5,1.5-1.9,1.5l-1.9,0c-0.4,0-0.5-0.1-0.5-0.4v-2.8l1.6,0c0.9,0,1.2,0.2,1.2,1h0.1v-2.5h-0.1
			c-0.1,0.8-0.4,1-1.2,1l-1.6,0V8.9l2,0c1,0,1.3,0.2,1.5,1.3H59l-0.1-1.6h-5.6v0.1c0.9,0.1,1,0.2,1,1.1v4.7c0,0.9-0.2,1-1,1.1v0.1
			H59C59.6,14.3,59.7,14.2,59.7,13.9 M53.2,10.2c0-0.6,0-1-0.1-1.6h-6.3c-0.1,0.6-0.1,1-0.1,1.6h0.1c0-0.7,0.4-1.2,1.4-1.2l1.2,0
			v5.6c0,0.9-0.1,1-1,1.1v0.1h3.2v-0.1c-0.9-0.1-1-0.2-1-1.1V8.9l1.2,0c0.9,0,1.3,0.5,1.4,1.2H53.2z M44.6,13H42l1.3-2.8L44.6,13z
			 M47.8,15.7L47.8,15.7c-0.7-0.2-0.8-0.3-1.1-0.9l-3-6.5l-2.9,6.5c-0.3,0.6-0.5,0.8-1.1,0.8v0.1h2.4v-0.1c-0.6-0.1-0.9-0.2-0.9-0.5
			c0-0.2,0.1-0.5,0.2-0.7l0.5-1.1h2.9l0.6,1.2c0.1,0.2,0.2,0.4,0.2,0.6c0,0.4-0.3,0.5-0.8,0.5v0.1H47.8z M40.2,14.2L40.2,14.2
			c-0.8,0.6-1.6,1.1-2.7,1.1c-1.7,0-2.8-1.3-2.8-3.3c0-2,1-3.3,2.6-3.3c1.3,0,2.4,0.8,2.7,2.1h0.1l-0.3-2.5h-0.1
			c0,0.3-0.1,0.4-0.3,0.4c-0.1,0-0.2,0-0.3-0.1c-0.3-0.1-1-0.4-1.8-0.4c-2.4,0-3.9,1.7-3.9,3.7c0,1.7,1.3,3.7,3.9,3.7
			C38.8,15.9,39.7,15,40.2,14.2 M31.5,12.5c0,1.4-0.7,3-2.2,3c-1.8,0-2.7-1.9-2.7-3.7c0-1.4,0.7-3,2.2-3
			C30.6,8.8,31.5,10.7,31.5,12.5 M32.8,12.1c0-2.1-1.5-3.7-3.7-3.7c-2.2,0-3.7,1.6-3.7,3.7c0,2.1,1.5,3.7,3.7,3.7
			C31.3,15.9,32.8,14.3,32.8,12.1 M26.6,8.6L26.6,8.6l-2.8-0.1v0.1c0.8,0.1,1,0.2,1,0.5c0,0.2-0.2,0.6-0.3,0.8l-1.9,3.9l-2-3.9
			c-0.1-0.2-0.3-0.5-0.3-0.8c0-0.3,0.4-0.4,1-0.5V8.6h-3.8v0.1c0.7,0.1,0.9,0.2,1.3,0.8l3.3,6.5l3.2-6.5C25.5,9,25.9,8.7,26.6,8.6
			 M17.1,12.2c0,2.1-1.2,3.2-3.3,3.2c-0.5,0-0.8-0.1-1-0.1V9.1c0.3-0.1,0.6-0.2,1-0.2C15.9,8.9,17.1,10.5,17.1,12.2 M18.4,12.2
			c0-2.4-2.2-3.6-4.4-3.6h-3.4v0.1c0.8,0.1,1,0.1,1,1.1v4.8c0,1-0.2,1.1-1,1.1v0.1h3.5C16.8,15.7,18.4,14.6,18.4,12.2 M6.8,12H3.3
			L5,8.1L6.8,12z M11.1,15.7v-0.1c-1-0.1-1.1-0.2-1.5-1.1L5.5,5.6l-4,8.9c-0.4,0.9-0.6,1-1.5,1.1v0.1h3.3v-0.1
			c-0.9-0.1-1.2-0.2-1.2-0.7c0-0.3,0.2-0.7,0.3-0.9L3,12.5h4l0.8,1.7C7.9,14.5,8,14.7,8,14.9c0,0.5-0.4,0.6-1.1,0.7v0.1H11.1z"/>
		<path d="M7.2,3.8L7.2,3.8c0,0.1-0.1,0.4-0.5,0.4l-0.5,0c-0.1,0-0.1,0-0.1-0.1V3.4l0.4,0c0.2,0,0.3,0.1,0.3,0.3h0V3h0
			c0,0.2-0.1,0.3-0.3,0.3l-0.4,0V2.6l0.5,0C6.9,2.6,7,2.6,7,2.9h0l0-0.4H5.6v0c0.2,0,0.3,0,0.3,0.3V4c0,0.2,0,0.3-0.3,0.3v0h1.5
			C7.2,4,7.2,3.9,7.2,3.8 M5.6,2.5L5.6,2.5l-0.8,0v0C4.9,2.5,5,2.5,5,2.8v0.5H4.1V2.8c0-0.2,0.1-0.3,0.3-0.3v0H3.5v0
			c0.2,0,0.3,0,0.3,0.3V4c0,0.2-0.1,0.3-0.3,0.3v0h0.8v0c-0.2,0-0.3,0-0.3-0.3V3.4H5V4c0,0.2-0.1,0.3-0.3,0.3v0h0.8v0
			C5.4,4.3,5.3,4.2,5.3,4V2.8C5.3,2.5,5.4,2.5,5.6,2.5 M3.6,2.9c0-0.2,0-0.3,0-0.4H1.9c0,0.2,0,0.3,0,0.4h0c0-0.2,0.1-0.3,0.4-0.3
			l0.3,0V4c0,0.2,0,0.3-0.3,0.3v0h0.8v0c-0.2,0-0.3,0-0.3-0.3V2.6l0.3,0C3.4,2.6,3.5,2.7,3.6,2.9L3.6,2.9z"/>
		<g>
			<path d="M1.4,16.9"/>
		</g>
	</g>
</g>
</svg>
