<?xml version="1.0" encoding="utf-8"?>
<!-- Generator: Adobe Illustrator 18.0.0, SVG Export Plug-In . SVG Version: 6.00 Build 0)  -->
<!DOCTYPE svg PUBLIC "-//W3C//DTD SVG 1.1//EN" "http://www.w3.org/Graphics/SVG/1.1/DTD/svg11.dtd">
<svg version="1.1" id="Layer_1" xmlns="http://www.w3.org/2000/svg" xmlns:xlink="http://www.w3.org/1999/xlink" x="0px" y="0px"
	 viewBox="0 0 97.7 73.8" enable-background="new 0 0 97.7 73.8" xml:space="preserve">
<g>
	<g>
		<path opacity="0.8" fill="#FFFFFF" stroke="#FFFFFF" stroke-width="3" stroke-miterlimit="1" d="M44.7,3.3
			C44.7,3.3,44.7,3.3,44.7,3.3C44.7,3.3,44.7,3.3,44.7,3.3z"/>
		<path opacity="0.8" fill="#FFFFFF" stroke="#FFFFFF" stroke-width="3" stroke-miterlimit="1" d="M44.6,3.3
			C44.6,3.2,44.6,3.2,44.6,3.3L44.6,3.3z"/>
		<path opacity="0.8" fill="#FFFFFF" stroke="#FFFFFF" stroke-width="3" stroke-miterlimit="1" d="M44.7,3.3
			C44.7,3.2,44.7,3.2,44.7,3.3L44.7,3.3z"/>
		<path opacity="0.8" fill="#FFFFFF" stroke="#FFFFFF" stroke-width="3" stroke-miterlimit="1" d="M57.1,11.3
			C57.1,11.1,57.1,11.3,57.1,11.3L57.1,11.3z"/>
		<path opacity="0.8" fill="#FFFFFF" stroke="#FFFFFF" stroke-width="3" stroke-miterlimit="1" d="M92,26.6C92,26.6,92,26.6,92,26.6
			C92,26.5,92,26.5,92,26.6z"/>
		<path opacity="0.8" fill="#FFFFFF" stroke="#FFFFFF" stroke-width="3" stroke-miterlimit="1" d="M92,26.6
			C92.1,26.5,92.1,26.5,92,26.6L92,26.6z"/>
		<path opacity="0.8" fill="#FFFFFF" stroke="#FFFFFF" stroke-width="3" stroke-miterlimit="1" d="M92,26.6C92,26.6,92,26.6,92,26.6
			C92,26.6,92,26.6,92,26.6z"/>
		<path opacity="0.8" fill="#FFFFFF" stroke="#FFFFFF" stroke-width="3" stroke-miterlimit="1" d="M92,26.5C92,26.5,92,26.5,92,26.5
			L92,26.5z"/>
		<path opacity="0.8" fill="#FFFFFF" stroke="#FFFFFF" stroke-width="3" stroke-miterlimit="1" d="M90.3,39c1-3.1,1.2-10.4,1.7-12.4
			c-1.7,1.4-8.9,4.8-10.9,7.1c-0.4,0.4-0.6,0.8-0.9,1.2c-3-1.8-6.5-2.8-10.2-2.8c-3.3,0-6.4,0.8-9.1,2.2c0.4-1.7,0.7-3.4,0.7-5.8
			c0-3.6-3.4-5.5-6.4-6.5c0.2-0.3,0.4-0.7,0.6-1.1c0.9-2.1,0.8-8,1.2-9.6c-0.6,0.5-2.3,1.5-4,2.5c-1.7-3.1-7.2-8.7-8.4-10.5
			C44.5,5.6,41.8,13.8,42,17c0.2,2.1,1.1,3.7,2.4,4.8c-3,0.9-6.7,2.8-6.7,6.6c0,4.8,1.5,7.1,1.7,11.2c-2.6-3.3-6.1-5.7-10.2-6.8
			c0-0.1,0-0.2,0-0.3c-0.5-3-4.7-9.8-5.4-11.9c-0.7,2-4.7,8.5-5.3,11.6c-2-0.7-4.1-1.2-4.9-1.6c0.3,0.6,0.7,2.1,1.2,3.6
			C8.4,37.5,4,44.1,4,51.9c0,11,8.9,19.8,19.8,19.8c5,0,8.8-1.9,12.3-5c4.3,3.4,9.4,4.2,10.4,4.3v0c0,0,1.2,0,1.5,0
			c0.3,0,1.5,0,1.5,0v0c2-0.1,5.7-0.6,9.3-2.4c3.1,1.9,7,3.1,10.9,3.1c11,0,20-8.9,20-19.8c0-2.5-0.4-4.9-1.2-7
			c2.1-1.4,5-4.1,6.1-4.8C93.8,40,92.1,39.5,90.3,39z"/>
		<path opacity="0.8" fill="#FFFFFF" stroke="#FFFFFF" stroke-width="3" stroke-miterlimit="1" d="M94.6,40.1
			C94.6,40.1,94.7,40.1,94.6,40.1L94.6,40.1z"/>
		<path opacity="0.8" fill="#FFFFFF" stroke="#FFFFFF" stroke-width="3" stroke-miterlimit="1" d="M94.6,40.1
			C94.7,39.9,94.6,40.1,94.6,40.1L94.6,40.1z"/>
		<path opacity="0.8" fill="#FFFFFF" stroke="#FFFFFF" stroke-width="3" stroke-miterlimit="1" d="M23.8,20.6
			C23.8,20.6,23.8,20.5,23.8,20.6L23.8,20.6z"/>
		<path opacity="0.8" fill="#FFFFFF" stroke="#FFFFFF" stroke-width="3" stroke-miterlimit="1" d="M23.9,20.6
			C23.9,20.5,23.9,20.5,23.9,20.6L23.9,20.6z"/>
		<path opacity="0.8" fill="#FFFFFF" stroke="#FFFFFF" stroke-width="3" stroke-miterlimit="1" d="M23.8,20.6
			C23.8,20.6,23.9,20.6,23.8,20.6C23.9,20.6,23.9,20.6,23.8,20.6z"/>
		<path opacity="0.8" fill="#FFFFFF" stroke="#FFFFFF" stroke-width="3" stroke-miterlimit="1" d="M13.6,30.6
			C13.6,30.6,13.6,30.4,13.6,30.6L13.6,30.6z"/>
		<path opacity="0.8" fill="#FFFFFF" stroke="#FFFFFF" stroke-width="3" stroke-miterlimit="1" d="M13.6,30.6
			C13.6,30.6,13.6,30.6,13.6,30.6L13.6,30.6z"/>
		<path opacity="0.8" fill="#FFFFFF" stroke="#FFFFFF" stroke-width="3" stroke-miterlimit="1" d="M13.6,30.6
			C13.6,30.6,13.6,30.6,13.6,30.6C13.6,30.6,13.6,30.6,13.6,30.6z"/>
	</g>
	<path opacity="0.8" fill="#D9E021" d="M67.3,55.9c0-8.2-7.4-10.5-7.4-15.2s1.8-7,1.8-12.2c0-6.2-9.7-7.3-10.7-7.4v0
		c0,0-1.2,0-1.5,0c-0.3,0-1.5,0-1.5,0v0c-1,0.2-10.3,1.2-10.3,7.4c0,5.2,1.8,7.5,1.8,12.2s-7.7,7-7.7,15.2C31.8,69,46,70.8,48,71v0
		c0,0,1.2,0,1.5,0c0.3,0,1.5,0,1.5,0v0C54,70.8,67.3,69,67.3,55.9z"/>
	<circle opacity="0.8" fill="#BA1F30" cx="23.8" cy="51.9" r="19.8"/>
	<circle opacity="0.8" fill="#F15A24" cx="70" cy="51.9" r="19.8"/>
	<path opacity="0.75" fill="#006837" d="M81,43L81,43C81,43,81,43,81,43C81,43.1,81,43,81,43L81,43c0.6,0.8,3.1,3.7,6.4,2.4
		c1.9-0.8,5.9-4.6,7.2-5.4l0,0c0,0,0.2,0,0,0c0.1-0.1,0,0,0,0l0,0c-1.5-0.2-6.7-2-8.8-1.9C82.3,38.4,81.2,42,81,43z"/>
	<g>
		<path d="M24.1,42.1v4.7h-0.5L21.5,44c-0.4-0.6-0.7-1-0.7-1h0c0,0,0,0.6,0,1.3v2.5h-0.5v-4.7h0.5l2.1,2.8c0.4,0.5,0.7,1,0.7,1h0
			c0,0,0-0.6,0-1.3v-2.5H24.1z"/>
		<path d="M28.6,46.3v0.5h-3.2v-4.7h3.1v0.5h-2.6v1.4H28v0.5h-2.1v1.7H28.6z"/>
		<path d="M29.6,46.8v-4.7h0.5v4.7H29.6z"/>
		<path d="M35.2,46.1c-0.2,0.3-0.8,0.8-1.7,0.8c-1.3,0-2.4-1-2.4-2.4c0-1.4,1.1-2.4,2.4-2.4c1,0,1.7,0.5,2.1,1.2L35,43.4
			c-0.3-0.5-0.9-0.8-1.6-0.8c-1.1,0-1.9,0.8-1.9,1.9c0,1.1,0.8,1.9,1.9,1.9c0.9,0,1.5-0.5,1.7-0.9v-0.6h-1.4v-0.5h1.9v2.4h-0.5
			C35.2,46.3,35.2,46.1,35.2,46.1L35.2,46.1z"/>
		<path d="M40.4,42.1v4.7h-0.5v-2.2h-2.6v2.2h-0.5v-4.7h0.5v2h2.6v-2H40.4z"/>
		<path d="M43.4,42.1c0.8,0,1.4,0.5,1.4,1.2c0,0.5-0.4,0.9-0.8,1v0c0.5,0.1,1.1,0.5,1.1,1.2c0,0.8-0.6,1.4-1.5,1.4h-1.9v-4.7H43.4z
			 M43.3,44.1c0.5,0,0.9-0.3,0.9-0.7c0-0.4-0.4-0.7-0.9-0.7h-1.1v1.5H43.3z M43.4,46.3c0.6,0,1-0.3,1-0.9c0-0.5-0.5-0.9-1-0.9h-1.3
			v1.8H43.4z"/>
		<path d="M48,42c1.3,0,2.4,1,2.4,2.4c0,1.4-1.1,2.4-2.4,2.4s-2.4-1-2.4-2.4C45.6,43,46.7,42,48,42z M48,46.4c1.1,0,1.9-0.8,1.9-1.9
			c0-1.1-0.8-1.9-1.9-1.9c-1.1,0-1.9,0.8-1.9,1.9C46.2,45.6,47,46.4,48,46.4z"/>
		<path d="M54.1,46.8L53,45.1c-0.1,0-0.2,0-0.2,0h-0.9v1.7h-0.5v-4.7h1.4c1.1,0,1.8,0.6,1.8,1.5c0,0.7-0.4,1.1-1,1.3l1.1,1.9H54.1z
			 M52.8,44.6c0.8,0,1.1-0.4,1.1-1c0-0.6-0.4-1-1.1-1h-0.9v1.9H52.8z"/>
		<path d="M59.3,42.1v4.7h-0.5v-2.2h-2.6v2.2h-0.5v-4.7h0.5v2h2.6v-2H59.3z"/>
		<path d="M62.6,42c1.3,0,2.4,1,2.4,2.4c0,1.4-1.1,2.4-2.4,2.4c-1.3,0-2.4-1-2.4-2.4C60.2,43,61.2,42,62.6,42z M62.6,46.4
			c1.1,0,1.9-0.8,1.9-1.9c0-1.1-0.8-1.9-1.9-1.9c-1.1,0-1.9,0.8-1.9,1.9C60.7,45.6,61.5,46.4,62.6,46.4z"/>
		<path d="M68.1,42c1.3,0,2.4,1,2.4,2.4c0,1.4-1.1,2.4-2.4,2.4c-1.3,0-2.4-1-2.4-2.4C65.7,43,66.8,42,68.1,42z M68.1,46.4
			c1.1,0,1.9-0.8,1.9-1.9c0-1.1-0.8-1.9-1.9-1.9c-1.1,0-1.9,0.8-1.9,1.9C66.3,45.6,67.1,46.4,68.1,46.4z"/>
		<path d="M73.4,42.1c1.3,0,2.4,1,2.4,2.4c0,1.4-1.1,2.3-2.4,2.3h-2v-4.7H73.4z M73.4,46.3c1,0,1.8-0.7,1.8-1.8
			c0-1.1-0.8-1.9-1.9-1.9H72v3.7H73.4z"/>
	</g>
	<g>
		<path d="M25.2,50.4c-0.2,0-0.5-0.2-0.5-0.4v0c0-0.3-0.2-0.5-0.4-0.5h-1.3c-0.2,0-0.4,0.2-0.4,0.5v13.5c0,0.3,0.2,0.4,0.4,0.4h1.3
			c0.2,0,0.4-0.2,0.4-0.4v-8.7c0-0.3-0.2-0.4-0.4-0.4H24c-0.2,0-0.4-0.2-0.4-0.5v-1c0-0.2,0.2-0.4,0.4-0.4h2.2
			c0.3,0,0.4,0.2,0.4,0.4v11.6c0,0.2-0.1,0.5-0.3,0.8L26,65.4c-0.2,0.2-0.5,0.3-0.7,0.3h-4.8c-0.3,0-0.4-0.2-0.4-0.4v-1
			c0-0.3,0.2-0.5,0.4-0.5c0.2,0,0.4-0.2,0.4-0.4v-8.9c0-0.2-0.2-0.6-0.4-0.7l0-0.1c-0.2-0.2-0.2-0.4,0-0.6l0-0.1
			c0.2-0.2,0.4-0.5,0.4-0.7v-2.2c0-0.3-0.2-0.5-0.4-0.5c-0.2,0-0.4-0.2-0.4-0.4v-1c0-0.3,0.2-0.4,0.4-0.4h4.8c0.2,0,0.6,0.1,0.7,0.3
			l0.3,0.4c0.2,0.2,0.3,0.5,0.3,0.7v1.1c0,0.2-0.2,0.4-0.4,0.4H25.2z"/>
		<path d="M34.6,63.4c0,0.2,0.2,0.4,0.3,0.4c0.2,0,0.4,0.2,0.4,0.4v1.1c0,0.3-0.2,0.4-0.5,0.4h-2.4c-0.3,0-0.4-0.2-0.4-0.4v-1.1
			c0-0.2,0.2-0.4,0.4-0.4c0.2,0,0.4-0.2,0.4-0.4v-8.2c0-0.2-0.2-0.5-0.3-0.7c-0.2-0.2-0.5-0.3-0.7-0.3h-0.6c-0.2,0-0.5,0.2-0.5,0.4
			v8.7c0,0.2,0.2,0.4,0.3,0.4c0.2,0,0.4,0.2,0.4,0.4v1.1c0,0.3-0.2,0.4-0.5,0.4h-2.5c-0.3,0-0.4-0.2-0.4-0.4v-1.1
			c0-0.2,0.2-0.4,0.3-0.4c0.2,0,0.4-0.2,0.4-0.4v-9c0-0.2-0.1-0.6-0.3-0.8l-0.1-0.1c-0.2-0.2-0.1-0.5,0-0.6l0.1-0.1
			c0.2-0.2,0.3-0.5,0.3-0.7v-2.3c0-0.2-0.1-0.4-0.4-0.4c-0.2,0-0.3-0.2-0.3-0.4v-1c0-0.2,0.2-0.4,0.4-0.4h4.9c0.2,0,0.5,0.2,0.7,0.3
			l0.3,0.4c0.2,0.2,0.3,0.5,0.3,0.8V52c0,0.2-0.2,0.5-0.3,0.7L34.1,53c-0.2,0.1-0.2,0.4,0,0.6l0.2,0.2c0.2,0.2,0.3,0.5,0.3,0.8V63.4
			z M31.7,52.3c0.2,0,0.6-0.1,0.7-0.3c0.2-0.2,0.3-0.5,0.3-0.7v-1.5c0-0.2-0.2-0.4-0.5-0.4h-1.2c-0.2,0-0.5,0.2-0.5,0.4v2
			c0,0.3,0.2,0.5,0.5,0.5H31.7z"/>
		<path d="M43.3,64.3c0,0.2-0.1,0.5-0.4,0.8l-0.3,0.3c-0.1,0.2-0.5,0.4-0.7,0.4h-4.8c-0.3,0-0.5-0.2-0.5-0.4v-1
			c0-0.3,0.1-0.4,0.4-0.4c0.2,0,0.4-0.2,0.4-0.5v-9c0-0.2-0.1-0.6-0.4-0.7l0-0.1c-0.3-0.1-0.3-0.4,0-0.6l0-0.1
			c0.2-0.2,0.4-0.5,0.4-0.8v-3.2c0-0.2,0.1-0.6,0.3-0.8l0.3-0.3c0.2-0.2,0.5-0.3,0.7-0.3H42c0.3,0,0.5,0.1,0.8,0.3l0.2,0.3
			c0.2,0.2,0.3,0.5,0.3,0.8V64.3z M41.4,49.9c0-0.3-0.2-0.4-0.4-0.4h-1.2c-0.2,0-0.4,0.2-0.4,0.4v13.5c0,0.3,0.2,0.5,0.4,0.5h1.2
			c0.3,0,0.4-0.2,0.4-0.5V49.9z"/>
		<path d="M49.8,50.3c-0.3,0-0.4-0.2-0.4-0.4v-0.1c0-0.2-0.2-0.4-0.5-0.4h-1.2c-0.3,0-0.4,0.2-0.4,0.4v13.5c0,0.3,0.2,0.5,0.4,0.5
			h1.2c0.3,0,0.5-0.2,0.5-0.5v-2.3c0-0.2,0.2-0.4,0.4-0.4h1c0.3,0,0.4,0.2,0.4,0.4v3.3c0,0.2-0.1,0.6-0.3,0.7l-0.3,0.3
			c-0.2,0.2-0.5,0.3-0.8,0.3H45c-0.3,0-0.4-0.2-0.4-0.4v-1c0-0.3,0.2-0.4,0.3-0.4c0.2,0,0.4-0.2,0.4-0.5v-9c0-0.3-0.2-0.5-0.3-0.7
			l-0.1-0.1c-0.2-0.2-0.2-0.4,0-0.6l0.1-0.1c0.2-0.2,0.3-0.5,0.3-0.8v-2.2c0-0.2-0.2-0.4-0.4-0.4c-0.2,0-0.3-0.2-0.3-0.5v-1
			c0-0.3,0.2-0.5,0.4-0.5h4.8c0.3,0,0.6,0.1,0.7,0.3l0.4,0.3c0.2,0.2,0.3,0.5,0.3,0.8v1c0,0.2-0.2,0.4-0.4,0.4H49.8z"/>
		<path d="M57.8,50.4c-0.2,0-0.5-0.2-0.5-0.5v0c0-0.3-0.2-0.4-0.4-0.4h-1.3c-0.2,0-0.5,0.2-0.5,0.4v2c0,0.3,0.2,0.4,0.5,0.4h1.3
			c0.2,0,0.4,0.2,0.4,0.5v0.9c0,0.3-0.2,0.5-0.4,0.5h-1.3c-0.2,0-0.5,0.2-0.5,0.4v8.8c0,0.2,0.2,0.4,0.5,0.4h1.3
			c0.2,0,0.4-0.2,0.4-0.4v-2.3c0-0.3,0.2-0.5,0.5-0.5h1c0.3,0,0.5,0.2,0.5,0.5v4.2c0,0.3-0.2,0.4-0.5,0.4H53c-0.3,0-0.4-0.2-0.4-0.4
			v-1c0-0.3,0.2-0.5,0.4-0.5c0.1,0,0.3-0.2,0.3-0.4v-9c0-0.3-0.2-0.6-0.3-0.8l-0.1-0.1c-0.2-0.2-0.2-0.5,0-0.6l0.1-0.1
			c0.2-0.1,0.3-0.5,0.3-0.7v-2.3c0-0.3-0.2-0.4-0.3-0.4c-0.2,0-0.4-0.2-0.4-0.5v-1c0-0.3,0.2-0.4,0.4-0.4h4.9c0.2,0,0.5,0.1,0.8,0.3
			l0.3,0.3c0.2,0.2,0.3,0.5,0.3,0.7v1.1c0,0.3-0.2,0.5-0.5,0.5H57.8z"/>
		<path d="M67.2,63.4c0,0.2,0.2,0.4,0.3,0.4c0.2,0,0.4,0.2,0.4,0.4v1.1c0,0.3-0.2,0.4-0.5,0.4H65c-0.3,0-0.4-0.2-0.4-0.4v-1.1
			c0-0.2,0.2-0.4,0.4-0.4c0.2,0,0.4-0.2,0.4-0.4v-8.2c0-0.2-0.2-0.5-0.3-0.7c-0.2-0.2-0.5-0.3-0.7-0.3h-0.6c-0.2,0-0.5,0.2-0.5,0.4
			v8.7c0,0.2,0.2,0.4,0.3,0.4c0.2,0,0.4,0.2,0.4,0.4v1.1c0,0.3-0.2,0.4-0.5,0.4H61c-0.3,0-0.4-0.2-0.4-0.4v-1.1
			c0-0.2,0.2-0.4,0.3-0.4c0.2,0,0.4-0.2,0.4-0.4v-9c0-0.2-0.1-0.6-0.3-0.8l-0.1-0.1c-0.2-0.2-0.1-0.5,0-0.6l0.1-0.1
			c0.2-0.2,0.3-0.5,0.3-0.7v-2.3c0-0.2-0.1-0.4-0.4-0.4c-0.2,0-0.3-0.2-0.3-0.4v-1c0-0.2,0.2-0.4,0.4-0.4h4.9c0.2,0,0.5,0.2,0.7,0.3
			l0.3,0.4c0.2,0.2,0.3,0.5,0.3,0.8V52c0,0.2-0.2,0.5-0.3,0.7L66.7,53c-0.2,0.1-0.2,0.4,0,0.6l0.2,0.2c0.2,0.2,0.3,0.5,0.3,0.8V63.4
			z M64.3,52.3c0.2,0,0.6-0.1,0.7-0.3c0.2-0.2,0.3-0.5,0.3-0.7v-1.5c0-0.2-0.2-0.4-0.5-0.4h-1.2c-0.2,0-0.5,0.2-0.5,0.4v2
			c0,0.3,0.2,0.5,0.5,0.5H64.3z"/>
		<path d="M75.9,49.9c0,0.3-0.2,0.5-0.4,0.5h-1c-0.2,0-0.4-0.2-0.4-0.5v0c0-0.2-0.2-0.4-0.5-0.4h-1.3c-0.2,0-0.4,0.2-0.4,0.4v2.1
			c0,0.3,0.2,0.4,0.4,0.4h3.2c0.2,0,0.4,0.2,0.4,0.4v11.6c0,0.3-0.1,0.6-0.3,0.8l-0.3,0.3c-0.2,0.2-0.5,0.4-0.8,0.4h-4.8
			c-0.3,0-0.4-0.2-0.4-0.5v-1c0-0.3,0.2-0.5,0.4-0.5c0.2,0,0.3-0.2,0.3-0.4v-4.1c0-0.2,0.2-0.4,0.5-0.4h1c0.3,0,0.4,0.2,0.4,0.4v4.1
			c0,0.3,0.2,0.4,0.4,0.4h1.3c0.2,0,0.5-0.2,0.5-0.4v-8.7c0-0.3-0.2-0.5-0.5-0.5h-1.3c-0.2,0-0.4,0.2-0.4,0.4c0,0.2-0.2,0.3-0.4,0.3
			h-1c-0.3,0-0.5-0.2-0.5-0.5v-0.1c0-0.3-0.1-0.5-0.3-0.7l0-0.1c-0.2-0.2-0.2-0.4,0-0.6l0-0.1c0.2-0.2,0.3-0.5,0.3-0.8v-2.3
			c0-0.2-0.2-0.4-0.3-0.4c-0.2,0-0.4-0.2-0.4-0.5v-1c0-0.3,0.2-0.5,0.4-0.5h4.8c0.2,0,0.6,0.1,0.8,0.3l0.3,0.3
			c0.2,0.2,0.3,0.5,0.3,0.8V49.9z"/>
	</g>
	<path opacity="0.8" fill="#006837" d="M23.8,40.8L23.8,40.8C23.8,40.8,23.7,40.8,23.8,40.8C24,40.8,23.8,40.8,23.8,40.8L23.8,40.8
		c1.4-0.6,6.2-3.3,5.4-8.3c-0.5-3-4.7-9.8-5.4-11.9l0,0c0,0,0.1-0.2,0,0c-0.1-0.2,0,0,0,0l0,0c-0.7,2-4.9,8.9-5.4,11.9
		C17.6,37.5,22.5,40.1,23.8,40.8z"/>
	<path opacity="0.8" fill="#006837" d="M23.5,40.4L23.5,40.4C23.5,40.4,23.5,40.4,23.5,40.4C23.4,40.5,23.5,40.4,23.5,40.4
		L23.5,40.4c-1,0.4-4.6,1.4-6.7-1.4c-1.2-1.7-2.5-7.1-3.2-8.4l0,0c0,0-0.2,0,0,0c0-0.2,0,0,0,0l0,0c1.3,0.7,6.7,1.9,8.4,3.2
		C24.9,35.8,23.8,39.4,23.5,40.4z"/>
	<path opacity="0.8" fill="#006837" d="M81.1,43.5L81.1,43.5C81.1,43.5,81,43.5,81.1,43.5C81.2,43.6,81.1,43.5,81.1,43.5L81.1,43.5
		c1.5,0.2,7,0.6,9-4.1c1.2-2.8,1.3-10.8,1.9-12.9l0,0c0,0,0.2-0.1,0,0c0-0.2,0,0,0,0l0,0c-1.7,1.4-8.9,4.8-10.9,7.1
		C77.7,37.4,80.3,42.3,81.1,43.5z"/>
	<path opacity="0.8" fill="#006837" d="M49.7,24.3L49.7,24.3C49.7,24.3,49.6,24.4,49.7,24.3C49.9,24.3,49.7,24.3,49.7,24.3
		L49.7,24.3c1.3-1,5.7-5,3.6-10c-1.2-3-7.4-9.1-8.6-11l0,0c0,0,0.1-0.2,0,0c-0.2-0.2,0,0,0,0l0,0C44.5,5.6,41.8,13.8,42,17
		C42.4,22.5,48.1,24,49.7,24.3z"/>
	<path opacity="0.8" fill="#006837" d="M49.3,24L49.3,24C49.3,24,49.2,24,49.3,24C49.3,24.1,49.3,24,49.3,24L49.3,24
		c1.1,0.1,5.2,0.3,6.6-3.1c0.9-2.1,0.8-8,1.2-9.6l0,0c0,0,0.1-0.1,0,0c0-0.2,0,0,0,0l0,0c-1.2,1-6.5,3.7-8,5.4
		C46.6,19.6,48.6,23.1,49.3,24z"/>
</g>
</svg>
