<?xml version="1.0" encoding="utf-8"?>
<!-- Generator: Adobe Illustrator 18.0.0, SVG Export Plug-In . SVG Version: 6.00 Build 0)  -->
<!DOCTYPE svg PUBLIC "-//W3C//DTD SVG 1.1//EN" "http://www.w3.org/Graphics/SVG/1.1/DTD/svg11.dtd">
<svg version="1.1" id="Layer_1" xmlns="http://www.w3.org/2000/svg" xmlns:xlink="http://www.w3.org/1999/xlink" x="0px" y="0px"
	 viewBox="0 0 6.1 5.4" enable-background="new 0 0 6.1 5.4" xml:space="preserve">
<path fill="#FFFFFF" d="M6.1,4.9c0.1-0.4-0.1-0.9-0.5-1c-0.5-0.2-1-0.3-1.6-1L3.8,2.7L4,2.5c0.5-0.7,1.1-0.8,1.6-1
	c0.4-0.1,0.6-0.6,0.5-1C6,0.1,5.5-0.1,5.1,0C4.7,0.1,4.4,0.5,4.5,0.9c0.1,0.4,0.2,0.3,0.3,0.5c0.1,0.2-0.5,0.3-1.3,0.9l0,0L1.2,0.7
	C0.9,0.5,0.4,0.4,0,0.7l2.8,2L0,4.7C0.4,5,0.8,4.9,1.2,4.7l2.2-1.6l0,0c0.8,0.6,1.4,0.7,1.3,0.9c0,0.2-0.2,0.1-0.3,0.5
	C4.4,4.9,4.7,5.3,5.1,5.4C5.5,5.5,6,5.3,6.1,4.9z M5.2,1.3c-0.5,0-0.7-0.6-0.3-0.9c0.2-0.2,0.7-0.2,0.9,0.1C6,0.9,5.6,1.4,5.2,1.3z
	 M4.9,5C4.6,4.7,4.8,4.1,5.3,4.1c0.4,0,0.8,0.5,0.6,0.8C5.6,5.3,5.2,5.2,4.9,5z"/>
</svg>
