<?xml version="1.0" encoding="utf-8"?>
<!-- Generator: Adobe Illustrator 18.0.0, SVG Export Plug-In . SVG Version: 6.00 Build 0)  -->
<!DOCTYPE svg PUBLIC "-//W3C//DTD SVG 1.1//EN" "http://www.w3.org/Graphics/SVG/1.1/DTD/svg11.dtd">
<svg version="1.1" id="Layer_1" xmlns="http://www.w3.org/2000/svg" xmlns:xlink="http://www.w3.org/1999/xlink" x="0px" y="0px"
	 viewBox="0 0 3000 8.6" enable-background="new 0 0 3000 8.6" xml:space="preserve">
<g>
	<g>
		<path fill="#FFFFFF" d="M1453.7,5.4c0,0.2,0.1,0.3,0.3,0.3c0.3,0,0.5-0.2,0.8-0.5c0.3-0.5,0.6-1.1,0.7-1.8c0-0.2,0.1-0.4,0.1-0.5
			c0,0-0.1,0.1-0.1,0.1l-0.1,0c0,0,0,0-0.1,0c-0.1,0-0.2,0-0.2-0.1c-0.1-0.1-0.1-0.2-0.1-0.3s0-0.2,0.1-0.3c0.1-0.1,0.2-0.1,0.3-0.1
			c0.2,0,0.4,0.1,0.5,0.2c0.1,0.1,0.1,0.3,0.1,0.5c0,0.2,0,0.5-0.1,0.7c0,0.3-0.1,0.6-0.2,0.8c-0.2,0.6-0.5,1.2-0.8,1.6
			c-0.4,0.4-0.8,0.6-1.4,0.6c-0.3,0-0.6-0.1-0.8-0.2c-0.2-0.2-0.3-0.4-0.3-0.8c0-0.1,0-0.3,0-0.4l0.6-2.9h1.2l-0.6,2.9
			C1453.7,5.2,1453.7,5.3,1453.7,5.4z"/>
		<path fill="#FFFFFF" d="M1458.8,4.9c-0.4,1.1-1,1.6-1.9,1.6c-0.2,0-0.4-0.1-0.6-0.2c-0.2-0.2-0.3-0.4-0.3-0.8c0-0.2,0-0.4,0.1-0.6
			l0.6-2.8h1.2l-0.6,2.9c0,0.1,0,0.2,0,0.3c0,0.2,0.1,0.3,0.4,0.3c0.2,0,0.3-0.1,0.5-0.2c0.1-0.1,0.2-0.3,0.3-0.5H1458.8z M1458.2,1
			c0,0.2-0.1,0.4-0.2,0.5c-0.1,0.1-0.3,0.2-0.5,0.2c-0.2,0-0.3-0.1-0.5-0.2c-0.1-0.1-0.2-0.3-0.2-0.5s0.1-0.4,0.2-0.5
			c0.1-0.1,0.3-0.2,0.5-0.2c0.2,0,0.4,0.1,0.5,0.2C1458.2,0.6,1458.2,0.8,1458.2,1z"/>
		<path fill="#FFFFFF" d="M1462,4.9c-0.6,1.1-1.4,1.6-2.4,1.6c-0.4,0-0.7-0.1-1-0.3c-0.2-0.2-0.4-0.6-0.4-1.1c0-0.7,0.2-1.3,0.5-1.9
			c0.3-0.5,0.6-0.8,1-1c0.2-0.1,0.5-0.2,0.7-0.2c0.4,0,0.7,0.1,0.8,0.2c0.1,0.2,0.2,0.4,0.2,0.6c0,0.5-0.2,0.9-0.6,1.3
			c-0.4,0.3-0.9,0.5-1.4,0.6c0,0.2,0,0.3,0,0.3c0,0.3,0.1,0.5,0.2,0.6c0.1,0.1,0.2,0.1,0.4,0.1c0.3,0,0.6-0.1,0.8-0.2
			c0.2-0.1,0.5-0.4,0.7-0.7H1462z M1460.9,2.8c0-0.2-0.1-0.3-0.2-0.3c-0.2,0-0.4,0.2-0.6,0.6c-0.2,0.4-0.3,0.8-0.4,1.2
			c0.3,0,0.6-0.2,0.9-0.5C1460.8,3.6,1460.9,3.2,1460.9,2.8z"/>
		<path fill="#FFFFFF" d="M1462.9,5.3c0,0.3,0.1,0.4,0.3,0.4c0.3,0,0.5-0.3,0.7-0.8l0.6-2.8h1.2l-0.6,2.9c0,0.1,0,0.2,0,0.3
			c0,0.2,0.1,0.3,0.3,0.3c0.3,0,0.5-0.2,0.8-0.5c0.3-0.5,0.6-1.1,0.7-1.8c0-0.2,0.1-0.4,0.1-0.5c0,0-0.1,0.1-0.1,0.1l-0.1,0
			c0,0,0,0-0.1,0c-0.1,0-0.2,0-0.2-0.1c-0.1-0.1-0.1-0.2-0.1-0.3c0-0.1,0-0.2,0.1-0.3c0.1-0.1,0.2-0.1,0.3-0.1
			c0.2,0,0.4,0.1,0.5,0.2c0.1,0.1,0.1,0.3,0.1,0.5c0,0.2,0,0.5-0.1,0.7c0,0.3-0.1,0.6-0.2,0.8c-0.2,0.6-0.5,1.1-0.8,1.5
			c-0.4,0.5-0.9,0.7-1.5,0.7s-0.9-0.2-1-0.7c-0.3,0.5-0.7,0.7-1.2,0.7c-0.3,0-0.5-0.1-0.7-0.2c-0.2-0.2-0.3-0.4-0.3-0.8
			c0-0.2,0-0.4,0.1-0.6l0.6-2.8h1.2l-0.6,2.9C1462.9,5.2,1462.9,5.2,1462.9,5.3z"/>
		<path fill="#FFFFFF" d="M1472,4.9c-0.4,1.1-1,1.6-1.9,1.6c-0.2,0-0.4-0.1-0.6-0.2c-0.2-0.2-0.3-0.4-0.3-0.8c0-0.2,0-0.4,0.1-0.6
			l0.5-2.4h-0.3l0.1-0.3h0.3l0.3-1.2l1.3-0.2l-0.3,1.4h0.5l-0.1,0.3h-0.5l-0.6,2.6c0,0.1,0,0.2,0,0.3c0,0.2,0.1,0.3,0.3,0.3
			c0.2,0,0.3-0.1,0.5-0.2c0.1-0.1,0.2-0.3,0.3-0.5H1472z"/>
		<path fill="#FFFFFF" d="M1474.9,5.3c0,0.2,0.1,0.4,0.3,0.4c0.2,0,0.3-0.1,0.4-0.2c0.1-0.1,0.2-0.3,0.3-0.6h0.4
			c-0.3,1-0.8,1.5-1.4,1.6c-0.1,0-0.2,0-0.3,0c-0.1,0-0.3,0-0.4-0.1c-0.4-0.2-0.5-0.4-0.5-0.9c0-0.2,0.1-0.6,0.2-1.1
			c0.1-0.5,0.2-0.9,0.2-1.1c0-0.3-0.1-0.4-0.3-0.4c-0.2,0-0.4,0.2-0.6,0.5c0,0.1-0.1,0.2-0.1,0.3l-0.6,2.8h-1.2l1.3-5.9l1.3-0.2
			l-0.5,2.2c0.3-0.3,0.6-0.5,1-0.5c0.3,0,0.5,0.1,0.7,0.2c0.2,0.2,0.3,0.4,0.3,0.7c0,0.3,0,0.6-0.1,1l-0.2,0.8
			C1474.9,5,1474.9,5.2,1474.9,5.3z"/>
		<path fill="#FFFFFF" d="M1478.7,4.9c-0.4,1.1-1,1.6-1.9,1.6c-0.2,0-0.4-0.1-0.6-0.2c-0.2-0.2-0.3-0.4-0.3-0.8c0-0.2,0-0.4,0.1-0.6
			l0.6-2.8h1.2l-0.6,2.9c0,0.1,0,0.2,0,0.3c0,0.2,0.1,0.3,0.3,0.3c0.2,0,0.3-0.1,0.5-0.2c0.1-0.1,0.2-0.3,0.3-0.5H1478.7z M1478.1,1
			c0,0.2-0.1,0.4-0.2,0.5c-0.1,0.1-0.3,0.2-0.5,0.2s-0.4-0.1-0.5-0.2c-0.1-0.1-0.2-0.3-0.2-0.5s0.1-0.4,0.2-0.5
			c0.1-0.1,0.3-0.2,0.5-0.2c0.2,0,0.4,0.1,0.5,0.2C1478.1,0.6,1478.1,0.8,1478.1,1z"/>
		<path fill="#FFFFFF" d="M1480.8,1.9c0,0.5,0,1,0.1,1.4l0.1,1.4c0,0.1,0,0.3,0,0.5c0,0.2,0,0.3-0.1,0.5c-0.1,0.1-0.1,0.3-0.2,0.4
			c-0.2,0.2-0.4,0.4-0.6,0.5c-0.3,0.1-0.5,0.1-0.8,0.1c-0.4,0-0.8-0.1-1-0.3c-0.2-0.2-0.3-0.5-0.3-0.7c0-0.2,0-0.4,0.1-0.6
			c0.1-0.1,0.2-0.2,0.3-0.3c0.4-0.7,0.8-1.6,1.1-2.6L1480.8,1.9z M1478.9,5.8c0.6,0,0.8-0.3,0.8-0.8c0-0.1,0-0.3,0-0.5l-0.1-0.5
			c0-0.3-0.1-0.7-0.1-1c-0.1,0.5-0.4,1-0.7,1.6c0.1,0.1,0.2,0.2,0.2,0.3c0,0.1,0,0.2-0.1,0.3c-0.1,0.1-0.2,0.1-0.3,0.1
			c-0.1,0-0.2,0-0.2-0.1C1478.5,5.6,1478.6,5.8,1478.9,5.8z"/>
		<path fill="#FFFFFF" d="M1484.1,5.3c0,0.3,0.1,0.4,0.3,0.4c0.3,0,0.5-0.3,0.7-0.8l0.6-2.8h1.2l-0.6,2.9c0,0.1,0,0.2,0,0.3
			c0,0.2,0.1,0.3,0.3,0.3c0.3,0,0.5-0.2,0.8-0.5c0.3-0.5,0.6-1.1,0.7-1.8c0-0.2,0.1-0.4,0.1-0.5c0,0-0.1,0.1-0.1,0.1l-0.1,0
			c0,0,0,0-0.1,0c-0.1,0-0.2,0-0.2-0.1c-0.1-0.1-0.1-0.2-0.1-0.3c0-0.1,0-0.2,0.1-0.3c0.1-0.1,0.2-0.1,0.3-0.1
			c0.2,0,0.4,0.1,0.5,0.2c0.1,0.1,0.1,0.3,0.1,0.5c0,0.2,0,0.5-0.1,0.7c0,0.3-0.1,0.6-0.2,0.8c-0.2,0.6-0.5,1.1-0.8,1.5
			c-0.4,0.5-0.9,0.7-1.5,0.7s-0.9-0.2-1-0.7c-0.3,0.5-0.7,0.7-1.2,0.7c-0.3,0-0.5-0.1-0.7-0.2c-0.2-0.2-0.3-0.4-0.3-0.8
			c0-0.2,0-0.4,0.1-0.6l0.6-2.8h1.2l-0.6,2.9C1484.1,5.2,1484.1,5.2,1484.1,5.3z"/>
		<path fill="#FFFFFF" d="M1492.2,4.9c-0.6,1.1-1.4,1.6-2.4,1.6c-0.4,0-0.7-0.1-1-0.3c-0.2-0.2-0.4-0.6-0.4-1.1
			c0-0.7,0.2-1.3,0.5-1.9c0.3-0.5,0.6-0.8,1-1c0.2-0.1,0.5-0.2,0.7-0.2c0.4,0,0.7,0.1,0.8,0.2c0.1,0.2,0.2,0.4,0.2,0.6
			c0,0.5-0.2,0.9-0.6,1.3c-0.4,0.3-0.9,0.5-1.4,0.6c0,0.2,0,0.3,0,0.3c0,0.3,0.1,0.5,0.2,0.6s0.2,0.1,0.4,0.1c0.3,0,0.6-0.1,0.8-0.2
			c0.2-0.1,0.5-0.4,0.7-0.7H1492.2z M1491.1,2.8c0-0.2-0.1-0.3-0.2-0.3c-0.2,0-0.4,0.2-0.6,0.6c-0.2,0.4-0.3,0.8-0.4,1.2
			c0.3,0,0.6-0.2,0.9-0.5C1491,3.6,1491.1,3.2,1491.1,2.8z"/>
		<path fill="#FFFFFF" d="M1495.5,4.9c-0.6,1.1-1.4,1.6-2.4,1.6c-0.4,0-0.7-0.1-1-0.3c-0.2-0.2-0.4-0.6-0.4-1.1
			c0-0.7,0.2-1.3,0.5-1.9c0.3-0.5,0.6-0.8,1-1c0.2-0.1,0.5-0.2,0.7-0.2c0.4,0,0.7,0.1,0.8,0.2c0.1,0.2,0.2,0.4,0.2,0.6
			c0,0.5-0.2,0.9-0.6,1.3c-0.4,0.3-0.9,0.5-1.4,0.6c0,0.2,0,0.3,0,0.3c0,0.3,0.1,0.5,0.2,0.6c0.1,0.1,0.2,0.1,0.4,0.1
			c0.3,0,0.6-0.1,0.8-0.2c0.2-0.1,0.5-0.4,0.7-0.7H1495.5z M1494.4,2.8c0-0.2-0.1-0.3-0.2-0.3c-0.2,0-0.4,0.2-0.6,0.6
			c-0.2,0.4-0.3,0.8-0.4,1.2c0.3,0,0.6-0.2,0.9-0.5C1494.3,3.6,1494.4,3.2,1494.4,2.8z"/>
		<path fill="#FFFFFF" d="M1497.6,3.3c0.1,0,0.2,0,0.3,0c0.3,0,0.6,0.1,0.7,0.3c0.2,0.2,0.2,0.4,0.2,0.7c0,0.1,0,0.2,0,0.3l-0.1,0.4
			c0,0.1,0,0.2,0,0.3c0,0.2,0.1,0.3,0.3,0.3c0.1,0,0.2,0,0.2,0l0.1,0c0,0.3-0.1,0.5-0.3,0.7c-0.2,0.2-0.3,0.2-0.5,0.2
			c-0.4,0-0.6-0.1-0.8-0.3c-0.2-0.2-0.3-0.4-0.3-0.7c0-0.1,0-0.3,0.1-0.5l0.1-0.3c0-0.1,0-0.2,0-0.3c0-0.3-0.1-0.4-0.3-0.4
			c-0.2,0-0.4,0.1-0.6,0.3l-0.5,2.1h-1.2l1.3-5.9l1.3-0.2l-0.6,3l1.7-1.3h0.9L1497.6,3.3z"/>
		<path fill="#FFFFFF" d="M1500.5,1.3c0-0.1,0-0.1-0.1-0.1c-0.3-0.1-0.4-0.3-0.4-0.5c0-0.2,0.1-0.3,0.2-0.5c0.1-0.1,0.3-0.2,0.4-0.2
			c0.2,0,0.3,0.1,0.4,0.2s0.1,0.3,0.1,0.5c0,0.2-0.1,0.4-0.3,0.7c-0.2,0.3-0.4,0.5-0.8,0.7c-0.1,0-0.1-0.1-0.1-0.1L1500.5,1.3z"/>
		<path fill="#FFFFFF" d="M1504.5,1.9c0,0.5,0,1,0.1,1.4l0.1,1.4c0,0.1,0,0.3,0,0.5c0,0.2,0,0.3-0.1,0.5c-0.1,0.1-0.1,0.3-0.2,0.4
			c-0.2,0.2-0.4,0.4-0.6,0.5c-0.3,0.1-0.5,0.1-0.8,0.1c-0.4,0-0.8-0.1-1-0.3c-0.2-0.2-0.3-0.5-0.3-0.7c0-0.2,0-0.4,0.1-0.6
			c0.1-0.1,0.2-0.2,0.3-0.3c0.4-0.7,0.8-1.6,1.1-2.6L1504.5,1.9z M1502.6,5.8c0.6,0,0.8-0.3,0.8-0.8c0-0.1,0-0.3,0-0.5l-0.1-0.5
			c0-0.3-0.1-0.7-0.1-1c-0.1,0.5-0.4,1-0.7,1.6c0.1,0.1,0.2,0.2,0.2,0.3c0,0.1,0,0.2-0.1,0.3c-0.1,0.1-0.2,0.1-0.3,0.1
			s-0.2,0-0.2-0.1C1502.1,5.6,1502.3,5.8,1502.6,5.8z"/>
		<path fill="#FFFFFF" d="M1508.6,6c-0.3,0.3-0.6,0.5-1,0.5c-0.5,0-0.9-0.2-1.1-0.7c-0.1-0.2-0.1-0.4-0.1-0.6c0-0.2,0-0.5,0.1-0.7
			c0-0.2,0.1-0.5,0.2-0.7c0.2-0.5,0.4-0.9,0.8-1.2c0.3-0.3,0.7-0.5,1.2-0.5c0.2,0,0.4,0,0.5,0.1c0.1,0.1,0.2,0.2,0.2,0.3v0.1
			l0.1-0.4h1.2l-0.9,4c0.3-0.1,0.5-0.2,0.6-0.4s0.3-0.5,0.4-0.8h0.4c-0.2,0.7-0.6,1.2-1.1,1.5c-0.1,0.1-0.3,0.1-0.4,0.1l-0.1,0.6
			c-0.1,0.6-0.3,1-0.7,1.2c-0.2,0.2-0.5,0.3-0.8,0.3s-0.6-0.1-0.8-0.2c-0.2-0.1-0.3-0.4-0.3-0.7c0-0.5,0.5-0.9,1.4-1.3L1508.6,6z
			 M1508.4,6.9c-0.6,0.2-0.8,0.4-0.8,0.7c0,0.1,0.1,0.2,0.2,0.3c0,0,0.1,0,0.2,0s0.2-0.1,0.2-0.2c0.1-0.1,0.2-0.3,0.2-0.6
			L1508.4,6.9z M1509.3,3c0-0.1-0.1-0.2-0.2-0.3c0,0-0.1,0-0.2,0c-0.2,0-0.3,0.1-0.5,0.3c-0.4,0.4-0.6,1-0.7,1.8c0,0.1,0,0.2,0,0.4
			c0,0.3,0.1,0.4,0.2,0.5c0.1,0.1,0.1,0.1,0.2,0.1c0.2,0,0.3-0.1,0.4-0.2c0.1-0.1,0.2-0.3,0.3-0.5L1509.3,3z"/>
		<path fill="#FFFFFF" d="M1510.6,6.5l0.9-4.3h1.2l-0.1,0.5c0.1-0.1,0.3-0.2,0.5-0.4c0.2-0.1,0.4-0.2,0.6-0.2s0.4,0.1,0.5,0.2
			c0.1,0.1,0.2,0.3,0.2,0.4c0,0.2-0.1,0.4-0.2,0.5s-0.2,0.2-0.4,0.2c-0.2,0-0.3,0-0.3-0.1c-0.1-0.1-0.1-0.1-0.1-0.2
			c0-0.1,0-0.1,0-0.2c0,0-0.1-0.1-0.1-0.1c-0.1,0-0.2,0-0.3,0.1c-0.1,0.1-0.2,0.1-0.3,0.2l-0.7,3.3H1510.6z"/>
		<path fill="#FFFFFF" d="M1519,3.2c-0.3,0.4-0.9,0.6-1.5,0.7c-0.1,0.8-0.3,1.4-0.7,1.9c-0.4,0.5-0.8,0.7-1.4,0.7
			c-0.7,0-1.1-0.2-1.3-0.7c-0.1-0.2-0.1-0.4-0.1-0.6c0-0.2,0-0.4,0.1-0.6s0.1-0.4,0.2-0.7c0.2-0.5,0.4-0.9,0.7-1.3
			c0.4-0.4,0.9-0.6,1.4-0.6c0.7,0,1.1,0.5,1.1,1.4v0c0,0,0.1,0,0.1,0c0.2,0,0.4,0,0.6-0.1c0.2-0.1,0.5-0.2,0.7-0.4L1519,3.2z
			 M1516.8,3.9c-0.2,0-0.2-0.2-0.2-0.4c0-0.2,0.1-0.4,0.3-0.4c0-0.2,0-0.3-0.1-0.4c0-0.1-0.1-0.1-0.3-0.1c-0.3,0-0.5,0.3-0.8,0.9
			c-0.2,0.6-0.4,1.1-0.4,1.6c0,0.3,0,0.5,0.1,0.5c0.1,0.1,0.1,0.1,0.2,0.1c0.1,0,0.1,0,0.2,0c0.2,0,0.4-0.2,0.6-0.5
			C1516.6,4.9,1516.7,4.4,1516.8,3.9z"/>
		<path fill="#FFFFFF" d="M1520.1,2.1c0.7,0,1,0.3,1,0.8c0,0.2,0,0.4-0.1,0.5c-0.1,0.1-0.2,0.2-0.3,0.2c-0.1,0-0.2,0-0.3-0.1
			c0.1-0.2,0.1-0.4,0.1-0.5c0-0.2-0.1-0.4-0.2-0.4c-0.2,0-0.3,0.1-0.5,0.4c-0.3,0.4-0.4,0.9-0.5,1.6c0,0.2,0,0.4,0,0.6
			c0,0.4,0.2,0.6,0.6,0.6c0.3,0,0.6-0.1,0.8-0.2c0.2-0.1,0.5-0.4,0.7-0.7h0.3c-0.6,1.1-1.4,1.6-2.4,1.6c-0.4,0-0.7-0.1-1-0.3
			c-0.2-0.2-0.4-0.6-0.4-1.1c0-0.7,0.2-1.3,0.5-1.9c0.3-0.5,0.6-0.8,1-1C1519.6,2.1,1519.9,2.1,1520.1,2.1z"/>
		<path fill="#FFFFFF" d="M1524.9,4.9c-0.6,1.1-1.4,1.6-2.4,1.6c-0.4,0-0.7-0.1-1-0.3c-0.2-0.2-0.4-0.6-0.4-1.1
			c0-0.7,0.2-1.3,0.5-1.9c0.3-0.5,0.6-0.8,1-1c0.2-0.1,0.5-0.2,0.7-0.2c0.4,0,0.7,0.1,0.8,0.2c0.1,0.2,0.2,0.4,0.2,0.6
			c0,0.5-0.2,0.9-0.6,1.3c-0.4,0.3-0.9,0.5-1.4,0.6c0,0.2,0,0.3,0,0.3c0,0.3,0.1,0.5,0.2,0.6c0.1,0.1,0.2,0.1,0.4,0.1
			c0.3,0,0.6-0.1,0.8-0.2c0.2-0.1,0.5-0.4,0.7-0.7H1524.9z M1523.8,2.8c0-0.2-0.1-0.3-0.2-0.3c-0.2,0-0.4,0.2-0.6,0.6
			c-0.2,0.4-0.3,0.8-0.4,1.2c0.3,0,0.6-0.2,0.9-0.5C1523.7,3.6,1523.8,3.2,1523.8,2.8z"/>
		<path fill="#FFFFFF" d="M1524.3,6.5l0.9-4.3h1.2l-0.1,0.5c0.1-0.1,0.3-0.2,0.5-0.4c0.2-0.1,0.4-0.2,0.6-0.2s0.4,0.1,0.5,0.2
			c0.1,0.1,0.2,0.3,0.2,0.4c0,0.2-0.1,0.4-0.2,0.5s-0.2,0.2-0.4,0.2c-0.2,0-0.3,0-0.3-0.1s-0.1-0.1-0.1-0.2c0-0.1,0-0.1,0-0.2
			c0,0-0.1-0.1-0.1-0.1c-0.1,0-0.2,0-0.3,0.1c-0.1,0.1-0.2,0.1-0.3,0.2l-0.7,3.3H1524.3z"/>
		<path fill="#FFFFFF" d="M1529,5.3c0,0.3,0.1,0.4,0.3,0.4c0.3,0,0.5-0.3,0.7-0.8l0.6-2.8h1.3l-1.1,5c-0.1,0.6-0.3,1-0.7,1.2
			c-0.2,0.2-0.5,0.3-0.8,0.3c-0.3,0-0.6-0.1-0.8-0.3c-0.2-0.2-0.3-0.4-0.3-0.6s0-0.4,0.1-0.6c0.1-0.1,0.2-0.3,0.4-0.4
			c0.2-0.1,0.5-0.3,1-0.4l0.1-0.4c-0.3,0.3-0.6,0.5-1.1,0.5c-0.3,0-0.5-0.1-0.7-0.2c-0.2-0.2-0.3-0.4-0.3-0.8c0-0.2,0-0.4,0.1-0.6
			l0.6-2.8h1.2l-0.6,2.9C1529,5.2,1529,5.2,1529,5.3z M1529.6,6.7c-0.3,0.1-0.5,0.2-0.6,0.3c-0.2,0.2-0.3,0.4-0.3,0.6
			c0,0.1,0,0.1,0.1,0.2c0.1,0.1,0.1,0.1,0.2,0.1c0.1,0,0.2,0,0.3-0.1c0.1-0.1,0.2-0.3,0.2-0.5L1529.6,6.7z"/>
		<path fill="#FFFFFF" d="M1538.6,4.9c-0.4,1.1-0.9,1.6-1.7,1.6c-0.5,0-0.8-0.3-0.8-0.8c-0.4,0.5-0.8,0.8-1.3,0.8s-0.8-0.2-1-0.7
			c-0.1-0.2-0.1-0.4-0.1-0.6c0-0.2,0-0.5,0.1-0.7c0-0.2,0.1-0.5,0.2-0.7c0.2-0.5,0.4-0.9,0.8-1.2c0.3-0.3,0.7-0.5,1.2-0.5
			c0.2,0,0.4,0,0.5,0.1c0.1,0.1,0.2,0.2,0.2,0.3v0.1l0.1-0.5h1.2l-0.6,2.9c0,0.1,0,0.2,0,0.3c0,0.2,0.1,0.4,0.4,0.4
			c0.3,0,0.5-0.3,0.7-0.8H1538.6z M1536.4,3c0-0.1,0-0.1-0.1-0.2c0-0.1-0.2-0.1-0.3-0.1s-0.3,0.1-0.5,0.3c-0.4,0.4-0.6,1-0.7,1.8
			c0,0.1,0,0.2,0,0.4c0,0.3,0.1,0.4,0.2,0.5c0.1,0.1,0.1,0.1,0.2,0.1c0.2,0,0.3-0.1,0.5-0.2c0.1-0.1,0.2-0.3,0.3-0.6L1536.4,3z"/>
		<path fill="#FFFFFF" d="M1540.6,5.7c-0.3,0.5-0.8,0.8-1.3,0.8c-0.5,0-0.9-0.2-1-0.7c-0.1-0.2-0.1-0.4-0.1-0.6c0-0.2,0-0.5,0.1-0.7
			c0-0.2,0.1-0.5,0.2-0.7c0.2-0.5,0.4-0.9,0.8-1.2c0.3-0.3,0.7-0.5,1.2-0.5c0.2,0,0.4,0,0.5,0.1c0.1,0.1,0.2,0.2,0.2,0.3v0l0.4-2
			l1.3-0.2l-1,4.7c0,0.1,0,0.2,0,0.3c0,0.2,0.1,0.3,0.4,0.3c0.3,0,0.6-0.3,0.7-0.8h0.4c-0.4,1-0.9,1.5-1.7,1.5
			C1540.9,6.5,1540.6,6.2,1540.6,5.7z M1539.4,5c0,0.4,0.1,0.6,0.4,0.6c0.1,0,0.3-0.1,0.4-0.2c0.1-0.1,0.3-0.3,0.3-0.5v0l0.4-2
			c-0.1-0.2-0.2-0.3-0.4-0.3c-0.2,0-0.3,0.1-0.5,0.3c-0.4,0.4-0.6,1-0.7,1.8C1539.4,4.8,1539.4,4.9,1539.4,5z"/>
		<path fill="#FFFFFF" d="M1545.3,1.9c0,0.5,0,1,0.1,1.4l0.1,1.4c0,0.1,0,0.3,0,0.5c0,0.2,0,0.3-0.1,0.5c-0.1,0.1-0.1,0.3-0.2,0.4
			c-0.2,0.2-0.4,0.4-0.6,0.5c-0.3,0.1-0.5,0.1-0.8,0.1c-0.4,0-0.8-0.1-1-0.3c-0.2-0.2-0.3-0.5-0.3-0.7c0-0.2,0-0.4,0.1-0.6
			c0.1-0.1,0.2-0.2,0.3-0.3c0.4-0.7,0.8-1.6,1.1-2.6L1545.3,1.9z M1543.4,5.8c0.6,0,0.8-0.3,0.8-0.8c0-0.1,0-0.3,0-0.5l-0.1-0.5
			c0-0.3-0.1-0.7-0.1-1c-0.1,0.5-0.4,1-0.7,1.6c0.1,0.1,0.2,0.2,0.2,0.3c0,0.1,0,0.2-0.1,0.3c-0.1,0.1-0.2,0.1-0.3,0.1
			c-0.1,0-0.2,0-0.2-0.1C1543,5.6,1543.1,5.8,1543.4,5.8z"/>
		<path fill="#FFFFFF" d="M1547.2,5.8c0,0.2-0.1,0.4-0.2,0.5s-0.3,0.2-0.5,0.2c-0.2,0-0.4-0.1-0.5-0.2c-0.1-0.1-0.2-0.3-0.2-0.5
			c0-0.2,0.1-0.4,0.2-0.5c0.1-0.1,0.3-0.2,0.5-0.2c0.2,0,0.3,0.1,0.5,0.2C1547.1,5.4,1547.2,5.6,1547.2,5.8z M1546.4,4.5l0.6-4.1
			h1.2l-1.1,4.1H1546.4z"/>
	</g>
</g>
<line fill="none" stroke="#FFFFFF" stroke-linecap="round" stroke-miterlimit="1" x1="0" y1="4.3" x2="1447.4" y2="4.3"/>
<line fill="none" stroke="#FFFFFF" stroke-linecap="round" stroke-miterlimit="1" x1="1553" y1="4.3" x2="3000" y2="4.3"/>
</svg>
