<?xml version="1.0" encoding="utf-8"?>
<!-- Generator: Adobe Illustrator 18.0.0, SVG Export Plug-In . SVG Version: 6.00 Build 0)  -->
<!DOCTYPE svg PUBLIC "-//W3C//DTD SVG 1.1//EN" "http://www.w3.org/Graphics/SVG/1.1/DTD/svg11.dtd">
<svg version="1.1" id="Layer_1" xmlns="http://www.w3.org/2000/svg" xmlns:xlink="http://www.w3.org/1999/xlink" x="0px" y="0px"
	 viewBox="0 0 50 9.7" enable-background="new 0 0 50 9.7" xml:space="preserve">
<g>
	<g>
		<defs>
			<rect id="SVGID_3_" y="0" width="50" height="9.7"/>
		</defs>
		<clipPath id="SVGID_1_">
			<use xlink:href="#SVGID_3_"  overflow="visible"/>
		</clipPath>
		<path clip-path="url(#SVGID_1_)" fill="#382616" d="M29.8,0.1C29.8,0.1,29.9,0.1,29.8,0.1L29.8,0c-1.8,1.4-4.2,3.6-5.3,6.3
			c-0.2-0.2-0.8-0.8-0.8-0.8l-0.1,0.1c-0.1-0.1-0.1-0.1-0.1-0.1l-0.2,0.2c-0.4,0.4-0.8,0.9-1.1,1.4l0,0l0,0l0,0
			c0.8,0.7,1.5,1.5,2.1,2.4l0,0l0.1,0c0,0,0,0,0,0l0,0.1h0.3l0-0.1c0.9-3,1.8-6,4-8.4l0.5-0.5l0.4-0.4C29.7,0.3,29.9,0.2,29.8,0.1
			L29.8,0.1L29.8,0.1z"/>
		<path clip-path="url(#SVGID_1_)" fill="#382616" d="M34.3,7.8c-0.5,0.6-1.1,0.8-1.9,0.8l-0.9,0c0,0-0.1,0-0.1,0
			c-0.1-0.1-0.2-0.2-0.2-0.4v-5c0-0.3,0.1-0.4,0.5-0.5l0.9,0h0c0.4,0,0.7,0.1,1,0.2c0.3,0.1,0.5,0.3,0.7,0.6C34.8,4.1,35,4.8,35,5.6
			C35,6.5,34.8,7.2,34.3,7.8L34.3,7.8z M35.4,3.1c-0.5-0.5-1.1-0.8-1.8-0.9c-0.4-0.1-0.8-0.1-1.2-0.1l-0.9,0l-0.9,0
			c-0.8,0-1.4,0-1.8,0c0,0-0.2,0-0.2,0.2c0,0.2,0.1,0.2,0.2,0.2c0,0,0,0,0,0c0,0.1,0.1,0.1,0.1,0.1c0.3,0,0.4,0.1,0.6,0.1
			c0,0,0.1,0.1,0.1,0.1c0,0.1,0.1,0.2,0.1,0.4v4.6c0,0.3,0,0.4-0.1,0.4c0,0.1-0.1,0.1-0.3,0.2c-0.1,0.1-0.3,0.1-0.6,0.1
			c0,0-0.2,0-0.2,0.2c0,0.2,0.1,0.2,0.2,0.2c0,0,0,0,0,0C28.9,9.2,29,9.2,29,9.2c0.6,0,1.2,0,1.8,0l0.9,0l0.9,0c1.2,0,2.1-0.3,2.8-1
			c0.7-0.6,1.1-1.5,1.1-2.5C36.5,4.7,36.1,3.8,35.4,3.1L35.4,3.1z M22.3,8.7c0,0-0.1,0-0.1,0c0,0-0.1,0-0.1,0c0,0-0.1,0-0.1,0
			c-0.1,0-0.2-0.1-0.2-0.1c0,0-0.1-0.2-0.1-0.6V6.1c0-0.5-0.1-0.8-0.4-1.1c-0.2-0.2-0.5-0.3-0.8-0.4c-0.2,0-0.3-0.1-0.5-0.1
			c-0.3,0-0.6,0.1-1,0.4c0-0.1,0-0.2,0-0.2c0,0,0-0.2-0.3-0.2c0,0,0,0,0,0c0,0-0.1,0-0.2,0c0,0-0.1,0-0.2,0.1v0c0,0-0.1,0.1-0.4,0.2
			c-0.2,0.1-0.5,0.2-0.8,0.3c-0.1,0-0.2,0.1-0.2,0.2c0,0.2,0.1,0.2,0.2,0.2h0c0,0,0,0,0,0c0,0.1,0.1,0.1,0.1,0.1c0.1,0,0.2,0,0.2,0
			c0,0,0,0,0,0c0,0,0.1,0.1,0.1,0.5v1.8c0,0.4-0.1,0.5-0.1,0.6c0,0.1-0.2,0.1-0.5,0.2c-0.1,0-0.1,0-0.2,0c0,0,0,0,0,0
			c-0.1,0-0.2-0.1-0.2-0.1c0,0-0.1-0.2-0.1-0.6V6.1c0-0.5-0.1-0.8-0.4-1.1c-0.2-0.2-0.5-0.3-0.8-0.4c-0.2,0-0.3-0.1-0.5-0.1
			c-0.3,0-0.6,0.1-1,0.4c0-0.1,0-0.2,0-0.2c0,0,0-0.2-0.3-0.2c0,0,0,0,0,0c0,0-0.1,0-0.2,0c0,0-0.1,0-0.2,0.1c0,0-0.1,0.1-0.4,0.2
			c-0.2,0.1-0.5,0.2-0.8,0.3c-0.1,0-0.2,0.1-0.2,0.2c0,0.2,0.1,0.2,0.2,0.2h0c0,0,0,0,0,0c0,0.1,0.1,0.1,0.1,0.1c0.1,0,0.2,0,0.2,0
			c0,0,0,0,0,0c0,0,0.1,0.1,0.1,0.5v1.8c0,0.4-0.1,0.5-0.1,0.6c0,0.1-0.2,0.1-0.5,0.2h0c0,0-0.1,0-0.1,0c-0.1,0-0.2-0.1-0.2-0.1
			c0,0-0.1-0.2-0.1-0.6V6.4c0-0.4,0-1,0.1-1.7l0,0c0-0.1,0-0.2-0.3-0.2c0,0,0,0,0,0c0,0-0.1,0-0.2,0c0,0-0.1,0-0.2,0.1
			c0,0-0.1,0.1-0.4,0.2C10.6,4.9,10.3,5,9.9,5.1c-0.1,0-0.2,0.1-0.2,0.2c0,0.2,0.1,0.2,0.2,0.2c0,0,0,0,0,0c0,0.1,0.1,0.1,0.1,0.1
			c0.1,0,0.1,0,0.2,0c0,0,0,0,0,0c0,0,0.1,0.1,0.1,0.5v1.8c0,0.4-0.1,0.5-0.1,0.6c0,0.1-0.2,0.1-0.5,0.2c0,0-0.2,0-0.2,0.2
			c0,0.2,0.1,0.2,0.2,0.2c0,0,0,0,0,0C9.9,9.2,10,9.2,10,9.2c0.1,0,0.3,0,0.5,0c0.2,0,0.4,0,0.6,0c0.2,0,0.4,0,0.6,0
			c0.2,0,0.4,0,0.5,0h0.1c0.1,0,0.3,0,0.5,0c0.2,0,0.4,0,0.5,0c0.2,0,0.3,0,0.5,0c0.2,0,0.4,0,0.5,0c0,0,0.2,0,0.2-0.3
			c0-0.2-0.1-0.2-0.2-0.2c0,0-0.1,0-0.1,0c0,0,0,0-0.1,0c0,0,0,0,0,0c-0.1,0-0.1-0.1-0.2-0.1C14,8.5,14,8.4,14,8c0,0,0-2.1,0-2.2
			c0.1-0.2,0.3-0.3,0.4-0.3c0.1-0.1,0.3-0.1,0.5-0.1c0.1,0,0.2,0,0.3,0c0,0,0.1,0.1,0.1,0.1c0.1,0.2,0.2,0.4,0.2,0.7v1.6
			c0,0.4-0.1,0.5-0.1,0.6c-0.1,0.1-0.2,0.1-0.4,0.2c0,0-0.2,0-0.2,0.2c0,0.2,0.1,0.2,0.2,0.2c0,0,0,0,0,0c0.1,0.1,0.1,0.1,0.2,0.1
			c0.1,0,0.3,0,0.5,0c0.2,0,0.4,0,0.5,0c0.2,0,0.3,0,0.5,0l0.1,0c0.2,0,0.3,0,0.5,0h0.1c0.1,0,0.3,0,0.5,0c0,0,0,0,0,0
			c0.2,0,0.4,0,0.5,0c0.2,0,0.3,0,0.6,0c0.2,0,0.4,0,0.5,0c0,0,0.2,0,0.2-0.3c0-0.2-0.1-0.2-0.2-0.2c0,0-0.1,0-0.1,0c0,0,0,0-0.1,0
			c0,0,0,0,0,0c-0.1,0-0.1-0.1-0.2-0.1c0,0-0.1-0.2-0.1-0.6c0,0,0-2.1,0-2.2c0.1-0.2,0.3-0.3,0.4-0.3c0.1-0.1,0.3-0.1,0.5-0.1
			c0.1,0,0.2,0,0.3,0c0,0,0.1,0.1,0.1,0.1c0.1,0.2,0.2,0.4,0.2,0.7v1.6c0,0.4-0.1,0.5-0.1,0.6c-0.1,0.1-0.2,0.1-0.4,0.2
			c0,0-0.2,0-0.2,0.2c0,0.2,0.1,0.2,0.2,0.2c0,0,0,0,0,0c0,0.1,0.1,0.1,0.2,0.1c0.1,0,0.3,0,0.5,0c0.2,0,0.4,0,0.6,0
			c0.2,0,0.3,0,0.5,0c0.2,0,0.4,0,0.5,0c0,0,0.2,0,0.2-0.3C22.5,8.7,22.3,8.7,22.3,8.7L22.3,8.7z M44.2,7.9c0,0.4-0.1,0.5-0.1,0.6
			c-0.1,0.1-0.5,0.2-0.5,0.2l0,0c0,0-0.1,0-0.1,0c-0.1,0-0.2-0.1-0.2-0.1c-0.1-0.1-0.3-0.3-0.6-0.6c0,0,0,0,0,0c0,0-0.1-0.1-0.3-0.5
			c0,0-0.4-0.6-0.5-0.6c0,0,0.6-0.8,0.6-0.8c0.3-0.3,0.5-0.5,0.6-0.6c0.1-0.1,0.3-0.1,0.5-0.2c0,0,0,0,0,0.1c0,0.2,0.1,0.2,0.2,0.2
			c0,0,0,0,0,0c0,0.1,0.1,0.1,0.1,0.1c0.1,0,0.1,0,0.2,0c0,0,0,0,0,0c0,0,0.1,0.1,0.1,0.5V7.9L44.2,7.9z M46,8.7c0,0-0.1,0-0.1,0
			c0,0-0.1,0-0.1,0c0,0-0.1,0-0.1,0c-0.1,0-0.2-0.1-0.2-0.1c0,0-0.1-0.2-0.1-0.6V6.4c0-0.4,0-1,0.1-1.7c0,0,0-0.1-0.1-0.1
			c0,0-0.1-0.1-0.2-0.1c0,0,0,0,0,0c0,0-0.1,0-0.2,0c0,0-0.1,0-0.2,0.1h0c0,0-0.1,0.1-0.4,0.2C44.3,4.9,44.1,5,43.8,5c0,0,0,0,0-0.1
			c0-0.2-0.2-0.3-0.2-0.3c0,0,0,0-0.1,0c0,0-0.1,0-0.1,0c-0.1,0-0.2,0-0.3,0c-0.2,0-0.3,0-0.5,0c-0.1,0-0.3,0-0.5,0
			c-0.2,0-0.3,0-0.5,0c0,0-0.2,0-0.2,0.2c0,0.2,0.1,0.2,0.2,0.2c0,0,0,0,0,0c0,0.1,0.1,0.1,0.1,0.1c0,0,0.1,0,0.1,0c0,0,0,0,0,0
			c0,0,0,0.1-0.3,0.6c0,0-0.1,0.2-0.3,0.4c-0.1-0.1-0.2-0.3-0.2-0.3c-0.3-0.4-0.3-0.5-0.3-0.5c0-0.1,0.1-0.1,0.3-0.1
			c0.1,0,0.2,0,0.2-0.2c0-0.2-0.2-0.3-0.2-0.3c0,0,0,0-0.1,0c0,0-0.1,0-0.1,0c-0.1,0-0.3,0-0.5,0c-0.2,0-0.4,0-0.6,0
			c-0.2,0-0.3,0-0.6,0c-0.2,0-0.4,0-0.5,0c0,0-0.2,0-0.2,0.2c0,0.2,0.1,0.2,0.2,0.2c0,0,0,0,0,0c0,0.1,0.1,0.1,0.1,0.1
			c0.1,0,0.2,0,0.3,0.1c0,0,0,0,0,0c0.1,0.1,0.3,0.3,0.5,0.6c0,0,0.6,0.9,0.8,1.1C40.6,7.2,40,7.9,40,7.9c-0.3,0.3-0.5,0.5-0.6,0.6
			c0,0,0,0,0,0c-0.1,0-0.2,0.1-0.6,0.2l-0.1,0c0,0,0,0,0,0c0,0,0,0-0.1,0c-0.1,0-0.1-0.1-0.2-0.1c0,0-0.1-0.2-0.1-0.6V6.4
			c0-0.4,0-1,0.1-1.7v0c0,0,0-0.1-0.1-0.1c0,0-0.1-0.1-0.2-0.1c0,0,0,0,0,0c0,0-0.1,0-0.2,0c0,0-0.1,0-0.2,0.1c0,0-0.1,0.1-0.4,0.2
			c-0.2,0.1-0.5,0.2-0.8,0.3c-0.1,0-0.2,0.1-0.2,0.2c0,0.2,0.1,0.2,0.2,0.2c0,0,0,0,0,0c0,0.1,0.1,0.1,0.1,0.1c0.1,0,0.1,0,0.2,0
			c0,0,0,0,0,0c0,0,0.1,0.1,0.1,0.5v1.8c0,0.4-0.1,0.5-0.1,0.6c0,0.1-0.2,0.1-0.5,0.2c0,0-0.2,0-0.2,0.2c0,0.2,0.1,0.2,0.2,0.2
			c0,0,0,0,0,0c0,0.1,0.1,0.1,0.2,0.1c0.1,0,0.3,0,0.5,0c0.2,0,0.4,0,0.6,0c0.2,0,0.4,0,0.6,0c0.2,0,0.3,0,0.5,0l0.1,0
			c0.1,0,0.2,0,0.3,0c0.1,0,0.3,0,0.5,0l0.1,0c0.1,0,0.3,0,0.5,0c0.2,0,0.3,0,0.5,0c0,0,0.2,0,0.2-0.3c0-0.2-0.1-0.2-0.2-0.2
			c-0.1,0-0.1,0-0.1,0c0,0,0,0,0,0c-0.1,0-0.1-0.1-0.1-0.1c0,0,0-0.1,0.3-0.5c0,0,0.2-0.3,0.3-0.4C41.2,7.8,41.3,8,41.3,8
			c0.3,0.4,0.3,0.5,0.3,0.5c0,0.1-0.2,0.1-0.3,0.1c0,0-0.2,0-0.2,0.2c0,0.2,0.1,0.2,0.2,0.2c0,0,0,0,0,0c0,0.1,0.1,0.1,0.2,0.1
			c0.1,0,0.3,0,0.6,0c0.2,0,0.4,0,0.6,0l0.8,0c0.3,0,0.7,0,0.8,0c0.2,0,0.4,0,0.6,0c0.2,0,0.4,0,0.6,0c0.2,0,0.4,0,0.5,0
			c0,0,0.2,0,0.2-0.3C46.2,8.7,46.1,8.7,46,8.7L46,8.7z M47.5,5.4c0.2-0.2,0.4-0.3,0.6-0.3c0.1,0,0.2,0,0.3,0c0,0,0.1,0.1,0.1,0.1
			c0.2,0.1,0.2,0.3,0.2,0.6c0,0.1,0,0.1-0.1,0.1c-0.1,0-0.2,0-0.4,0.1c0,0-0.6,0-1,0C47.2,5.7,47.3,5.5,47.5,5.4L47.5,5.4z
			 M49.7,7.8L49.7,7.8L49.7,7.8c-0.1,0-0.1,0-0.2,0h0l-0.1,0l0,0c-0.1,0.2-0.3,0.3-0.5,0.5c-0.2,0.1-0.4,0.2-0.7,0.2
			c-0.1,0-0.2,0-0.3,0c-0.2-0.1-0.4-0.2-0.5-0.3c-0.2-0.3-0.3-0.6-0.3-1.1c0-0.1,0-0.3,0-0.4c0.1,0,2.6,0,2.6,0
			c0.2,0,0.3-0.1,0.3-0.3c0-0.4-0.2-0.8-0.6-1.2c-0.3-0.3-0.6-0.4-1-0.5c-0.2,0-0.4-0.1-0.6-0.1c-0.6,0-1.2,0.2-1.6,0.7
			c-0.4,0.5-0.6,1-0.6,1.7c0,0.7,0.2,1.2,0.6,1.7C46.5,8.8,46.7,9,47,9.1c0.3,0.2,0.7,0.3,1,0.3c0.3,0,0.6-0.1,0.8-0.2
			c0.3-0.1,0.5-0.3,0.7-0.5c0.3-0.3,0.3-0.4,0.3-0.5c0-0.1,0-0.1-0.1-0.2C49.8,7.9,49.8,7.8,49.7,7.8L49.7,7.8z M9.4,3.4
			c0,0-1.3,2.9-1.7,4c-0.3-0.6-1-2.1-1-2.1c0,0,0.9-1.7,0.9-1.7C7.8,3.2,8,2.9,8.1,2.8c0.1-0.1,0.3-0.2,0.6-0.2c0,0,0.1,0,0.1-0.1
			c0,0,0,0,0-0.1c0,0,0.1,0,0.1,0c0,0,0,0,0,0c0,0.1,0.1,0.1,0.1,0.1c0.1,0,0.2,0,0.3,0C9.5,2.8,9.5,2.9,9.5,3
			C9.5,3.1,9.5,3.2,9.4,3.4L9.4,3.4z M5.7,3.3C5.5,3,5.5,2.9,5.5,2.9c0-0.1,0.2-0.2,0.5-0.3c0,0,0.1,0,0.1,0c0,0,0,0,0-0.1
			c0,0,0.1,0,0.1,0c0,0,0,0,0,0c0,0.1,0.1,0.1,0.1,0.1c0.1,0,0.2,0,0.3,0c0.1,0.1,0.1,0.2,0.1,0.3c0,0.1,0,0.3-0.1,0.4
			c0,0-0.3,0.6-0.5,1C6,4,5.7,3.3,5.7,3.3L5.7,3.3z M4.5,7.5C4.1,6.7,2.6,3.3,2.6,3.3c0-0.1-0.1-0.2-0.1-0.3c0-0.1,0-0.2,0.1-0.3
			C2.8,2.7,3,2.6,3.2,2.6c0,0,0.1,0,0.1,0c0,0,0-0.1,0-0.1c0,0,0.1,0,0.1,0c0,0,0,0,0,0c0.1,0.1,0.1,0.1,0.2,0.1
			c0.1,0,0.2,0,0.3,0.1c0,0,0,0,0.1,0C4,2.8,4.2,3.1,4.4,3.5c0,0,0.9,1.9,1.1,2.2C5.4,5.8,4.8,7,4.5,7.5L4.5,7.5z M10.7,2.8
			c0.1-0.1,0.3-0.2,0.5-0.2c0,0,0.1,0,0.2-0.1c0-0.1,0.1-0.1,0.1-0.2c0-0.2-0.2-0.2-0.2-0.2c0,0,0,0-0.1,0c0,0-0.1,0-0.1,0
			c-0.2,0-0.3,0-0.5,0v0c-0.2,0-0.4,0-0.5,0c-0.1,0-0.3,0-0.5,0c-0.2,0-0.4,0-0.6,0c0,0-0.1,0-0.2,0.1c0,0-0.1,0-0.1,0
			c0,0-0.1,0-0.1,0c0,0-0.1,0-0.1,0c-0.2,0-0.4,0-0.6,0c-0.2,0-0.3,0-0.4,0c-0.1,0-0.3,0-0.5,0c-0.2,0-0.4,0-0.6,0
			c-0.1,0-0.1,0-0.1,0.1c0,0,0,0,0,0c0-0.1-0.1-0.1-0.1-0.1c0,0,0,0-0.1,0c0,0-0.1,0-0.1,0c-0.2,0-0.4,0-0.7,0c-0.2,0-0.4,0-0.6,0
			c-0.2,0-0.4,0-0.6,0c-0.2,0-0.4,0-0.6,0c0,0-0.1,0-0.1,0.1c0,0-0.1,0-0.1,0c0,0,0,0-0.1,0c0,0-0.1,0-0.1,0c-0.2,0-0.5,0-0.8,0
			c-0.3,0-0.5,0-0.7,0c-0.2,0-0.4,0-0.6,0c-0.2,0-0.5,0-0.7,0C0.1,2.1,0,2.1,0,2.3c0,0.1,0,0.1,0.1,0.2c0,0,0.1,0.1,0.1,0.1
			c0,0,0,0,0,0c0,0,0,0,0,0c0,0.1,0.1,0.1,0.2,0.1c0.2,0,0.3,0,0.4,0.1c0,0,0.1,0,0.1,0.1C1,2.9,1.2,3.1,1.3,3.5l2.5,5.6
			c0,0,0.1,0.1,0.2,0.1c0,0,0.1,0.1,0.2,0.1c0.1,0,0.2,0,0.2-0.1c0,0,1.1-2,1.4-2.6c0.3,0.7,1.2,2.6,1.2,2.6l0,0
			c0,0.1,0.1,0.1,0.2,0.1c0.1,0.1,0.1,0.1,0.2,0.1c0.2,0,0.2-0.1,0.2-0.1v0l2.5-5.7C10.4,3.2,10.5,3,10.7,2.8L10.7,2.8z M44.2,4.3
			c0.1,0.1,0.2,0.1,0.4,0.1c0.2,0,0.3-0.1,0.4-0.2c0.1-0.1,0.2-0.3,0.2-0.4c0-0.2-0.1-0.3-0.2-0.4c-0.1-0.1-0.2-0.2-0.4-0.2
			c-0.1,0-0.1,0-0.2,0c-0.2,0-0.3,0.1-0.4,0.2c-0.1,0.1-0.2,0.3-0.2,0.4c0,0.2,0.1,0.3,0.2,0.4C44,4.2,44.1,4.3,44.2,4.3L44.2,4.3z
			 M37.2,4.3c0.1,0.1,0.2,0.1,0.4,0.1c0.2,0,0.3-0.1,0.4-0.2c0.1-0.1,0.2-0.3,0.2-0.4c0-0.2-0.1-0.3-0.2-0.4
			c-0.1-0.1-0.2-0.2-0.4-0.2c-0.1,0-0.1,0-0.2,0c-0.2,0-0.3,0.1-0.4,0.2l0,0c-0.1,0.1-0.2,0.3-0.2,0.4c0,0.2,0.1,0.3,0.2,0.4
			C37,4.3,37.1,4.3,37.2,4.3L37.2,4.3z M10.9,3.1c-0.2,0-0.3,0.1-0.4,0.2c-0.1,0.1-0.2,0.3-0.2,0.4c0,0.2,0.1,0.3,0.2,0.4
			c0.1,0.1,0.2,0.1,0.3,0.2c0.1,0.1,0.2,0.1,0.4,0.1c0.2,0,0.3-0.1,0.4-0.2c0.1-0.1,0.2-0.3,0.2-0.4c0-0.2-0.1-0.3-0.2-0.4
			c-0.1-0.1-0.2-0.2-0.4-0.2C11.1,3.1,11,3.1,10.9,3.1L10.9,3.1z"/>
	</g>
	<path fill="#CF0A2C" d="M35.1,5.6c0-0.9-0.3-1.6-0.8-2.2c-0.5-0.6-1.1-0.9-1.9-0.9h0l-0.9,0c-0.4,0-0.6,0.2-0.6,0.6v5
		c0,0.4,0.2,0.6,0.6,0.6l0.9,0c0.8,0,1.4-0.3,1.9-0.9C34.8,7.2,35.1,6.5,35.1,5.6L35.1,5.6z M36.2,5.6c0,1-0.3,1.8-1,2.4
		C34.5,8.7,33.6,9,32.4,9c-0.1,0-0.4,0-0.9,0c-0.5,0-0.8,0-0.9,0c-0.6,0-1.2,0-1.8,0c-0.1,0-0.1,0-0.1-0.1c0-0.1,0-0.1,0.1-0.1
		c0.3,0,0.5-0.1,0.6-0.1c0.1-0.1,0.2-0.1,0.3-0.2c0.1-0.1,0.1-0.3,0.1-0.5V3.3c0-0.2,0-0.4-0.1-0.5c-0.1-0.1-0.2-0.2-0.3-0.2
		c-0.1-0.1-0.4-0.1-0.6-0.1c-0.1,0-0.1,0-0.1-0.1c0-0.1,0-0.1,0.1-0.1c0.4,0,1,0,1.8,0c0.2,0,0.5,0,0.9,0c0.4,0,0.7,0,0.9,0
		c1.1,0,2,0.3,2.7,1C35.8,3.8,36.2,4.6,36.2,5.6L36.2,5.6z"/>
	<path fill="#CF0A2C" d="M48.8,5.8c0-0.2-0.1-0.5-0.3-0.6c-0.2-0.2-0.4-0.2-0.7-0.2c-0.3,0-0.5,0.1-0.7,0.3
		c-0.2,0.2-0.3,0.5-0.4,0.8l1.4,0c0.2,0,0.4,0,0.4-0.1C48.7,6,48.8,5.9,48.8,5.8L48.8,5.8z M49.7,6.2c0,0.1-0.1,0.1-0.2,0.1h-2.7
		c0,0.2,0,0.4,0,0.6c0,0.5,0.1,0.9,0.4,1.2c0.3,0.3,0.6,0.4,1.1,0.4c0.2,0,0.5-0.1,0.7-0.2c0.2-0.1,0.4-0.3,0.6-0.5l0,0
		c0,0,0.1,0,0.1,0.1c0,0,0,0.1,0,0.1c0,0.1-0.1,0.2-0.3,0.4c-0.2,0.2-0.4,0.4-0.7,0.5c-0.2,0.1-0.5,0.2-0.8,0.2
		c-0.6,0-1.1-0.2-1.5-0.7c-0.4-0.4-0.6-1-0.6-1.6c0-0.6,0.2-1.2,0.6-1.6c0.4-0.4,0.9-0.7,1.5-0.7c0.5,0,0.9,0.2,1.3,0.5
		C49.5,5.4,49.7,5.8,49.7,6.2L49.7,6.2z"/>
	<path fill="#CF0A2C" d="M37.4,3.3c-0.1,0-0.3,0-0.4,0.1c-0.1,0.1-0.1,0.2-0.1,0.4c0,0.1,0,0.3,0.1,0.4c0.1,0.1,0.2,0.2,0.4,0.2
		c0.1,0,0.3,0,0.4-0.2c0.1-0.1,0.1-0.2,0.1-0.4c0-0.1,0-0.3-0.1-0.4C37.6,3.3,37.5,3.3,37.4,3.3L37.4,3.3z"/>
	<path fill="#CF0A2C" d="M44.4,3.2c-0.1,0-0.3,0-0.4,0.1c-0.1,0.1-0.1,0.2-0.1,0.4c0,0.1,0.1,0.3,0.2,0.4c0.1,0.1,0.2,0.2,0.4,0.2
		c0.1,0,0.3-0.1,0.4-0.2c0.1-0.1,0.2-0.2,0.2-0.4c0-0.1-0.1-0.3-0.2-0.4C44.6,3.3,44.5,3.2,44.4,3.2L44.4,3.2z"/>
	<path fill="#CF0A2C" d="M10.9,3.2c-0.1,0-0.3,0-0.4,0.1c-0.1,0.1-0.1,0.2-0.1,0.4c0,0.1,0,0.3,0.2,0.4c0.1,0.1,0.2,0.2,0.4,0.2
		c0.1,0,0.3-0.1,0.4-0.2c0.1-0.1,0.2-0.2,0.2-0.4c0-0.1-0.1-0.3-0.2-0.4C11.2,3.2,11.1,3.2,10.9,3.2L10.9,3.2z"/>
	<path fill="#CF0A2C" d="M0.2,2.4c0.3,0,0.5,0.1,0.7,0.3c0.2,0.1,0.3,0.4,0.5,0.7l2.5,5.7c0,0.1,0.1,0.1,0.1,0.1
		c0.1,0,0.1,0,0.1-0.1l1.6-2.9l1.4,2.9c0,0.1,0.1,0.1,0.1,0.1c0.1,0,0.1,0,0.1-0.1l2.5-5.7c0.2-0.4,0.3-0.6,0.5-0.8
		c0.2-0.1,0.4-0.2,0.6-0.2c0,0,0.1,0,0.1,0c0,0,0-0.1,0-0.1c0-0.1,0-0.1-0.1-0.1c-0.2,0-0.3,0-0.5,0c-0.2,0-0.4,0-0.5,0
		c-0.1,0-0.3,0-0.5,0c-0.2,0-0.4,0-0.6,0c-0.1,0-0.1,0-0.1,0.1s0,0.1,0.1,0.1c0.4,0,0.7,0.2,0.7,0.5c0,0.1,0,0.3-0.1,0.4L7.6,7.8
		L6.3,5.2l0.9-1.7C7.5,3,7.7,2.8,7.8,2.7C8,2.5,8.2,2.5,8.5,2.4c0.1,0,0.1-0.1,0.1-0.2c0-0.1,0-0.1-0.1-0.1c-0.2,0-0.4,0-0.6,0
		c-0.2,0-0.3,0-0.4,0c-0.1,0-0.3,0-0.5,0c-0.2,0-0.4,0-0.6,0c0,0,0,0-0.1,0c0,0,0,0.1,0,0.1c0,0.1,0,0.1,0.1,0.1
		C6.7,2.5,7,2.6,7,2.9c0,0.1,0,0.3-0.1,0.5L6.1,4.7L5.4,3.3C5.3,3.1,5.2,2.9,5.2,2.8c0-0.2,0.2-0.3,0.7-0.4c0,0,0,0,0-0.1
		s0-0.1-0.1-0.1c-0.2,0-0.4,0-0.7,0c-0.2,0-0.4,0-0.6,0c-0.2,0-0.4,0-0.6,0c-0.2,0-0.4,0-0.6,0c0,0-0.1,0-0.1,0.1c0,0,0,0.1,0,0.1
		c0,0,0,0,0.1,0c0.3,0,0.4,0.1,0.6,0.2C4.1,2.8,4.3,3,4.5,3.4l1.1,2.3L4.4,7.9l-2-4.6C2.3,3.2,2.3,3.1,2.3,3c0-0.2,0.1-0.3,0.2-0.4
		C2.6,2.5,2.8,2.5,3,2.4c0,0,0,0,0-0.1S3,2.2,3,2.2c-0.2,0-0.5,0-0.8,0c-0.3,0-0.5,0-0.7,0c-0.2,0-0.4,0-0.6,0c-0.2,0-0.5,0-0.7,0h0
		c-0.1,0-0.1,0-0.1,0.1C0.1,2.3,0.1,2.4,0.2,2.4C0.2,2.4,0.2,2.4,0.2,2.4L0.2,2.4L0.2,2.4z"/>
	<path fill="#CF0A2C" d="M45.8,8.7c-0.3,0-0.5-0.1-0.5-0.2c-0.1-0.1-0.1-0.3-0.1-0.6V6.4c0-0.4,0-1,0.1-1.7c0-0.1,0-0.1-0.1-0.1
		c0,0-0.1,0-0.1,0.1c-0.1,0.1-0.2,0.1-0.4,0.2c-0.2,0.1-0.5,0.2-0.8,0.3c-0.1,0-0.1,0-0.1,0.1c0,0.1,0,0.1,0.1,0.1
		c0.2,0,0.4,0.1,0.4,0.2c0.1,0.1,0.1,0.3,0.1,0.5v1.8c0,0.3,0,0.5-0.1,0.6c-0.1,0.1-0.6,0.2-0.6,0.2c-0.3,0-0.5-0.1-0.6-0.2
		c-0.1-0.1-0.3-0.3-0.6-0.6l-0.9-1.2l0.7-0.9c0.3-0.3,0.5-0.5,0.6-0.6c0.1-0.1,0.4-0.2,0.6-0.2c0.1,0,0.1-0.1,0.1-0.1
		c0-0.1,0-0.1-0.1-0.1c-0.1,0-0.2,0-0.3,0c-0.2,0-0.3,0-0.5,0c-0.1,0-0.3,0-0.5,0c-0.2,0-0.3,0-0.4,0c-0.1,0-0.1,0-0.1,0.1
		c0,0.1,0,0.1,0.1,0.1c0.3,0,0.4,0.1,0.4,0.2c0,0.1-0.1,0.3-0.4,0.6l-0.4,0.6l-0.4-0.6c-0.2-0.3-0.3-0.5-0.3-0.6
		c0-0.1,0.1-0.2,0.4-0.2C41,5,41.1,5,41.1,4.9c0-0.1,0-0.1-0.1-0.1c-0.1,0-0.3,0-0.5,0c-0.2,0-0.4,0-0.6,0c-0.2,0-0.4,0-0.6,0
		c-0.2,0-0.4,0-0.5,0c-0.1,0-0.1,0-0.1,0.1c0,0.1,0,0.1,0.1,0.1c0.2,0,0.4,0.1,0.6,0.2c0.1,0.1,0.3,0.3,0.6,0.7l0.8,1.2l-0.7,0.9
		c-0.3,0.3-0.5,0.5-0.6,0.6l0,0c-0.1,0-0.1,0.1-0.7,0.2c0,0-0.1,0-0.1,0l0,0c-0.3,0-0.4-0.1-0.5-0.2C38.1,8.4,38,8.2,38,7.9V6.4
		c0-0.4,0-1,0.1-1.7c0-0.1,0-0.1-0.1-0.1c0,0-0.1,0-0.1,0.1c-0.1,0.1-0.2,0.1-0.4,0.2C37.3,5,37,5.1,36.6,5.2c-0.1,0-0.1,0-0.1,0.1
		c0,0.1,0,0.1,0.1,0.1c0.2,0,0.4,0.1,0.4,0.2c0.1,0.1,0.1,0.3,0.1,0.5v1.8c0,0.3,0,0.5-0.1,0.6c-0.1,0.1-0.3,0.2-0.5,0.2
		c-0.1,0-0.1,0.1-0.1,0.1c0,0.1,0,0.1,0.1,0.1c0.1,0,0.3,0,0.5,0c0.2,0,0.4,0,0.6,0h0C38.1,9,38.3,9,38.7,9c0,0,0.1,0,0.1,0
		C39,9,39.2,9,39.6,9h0.1c0.1,0,0.3,0,0.5,0c0.2,0,0.3,0,0.4,0c0.1,0,0.1,0,0.1-0.1c0-0.1,0-0.1-0.1-0.1c-0.3,0-0.4-0.1-0.4-0.2
		c0-0.1,0.1-0.3,0.4-0.6l0.4-0.6l0.4,0.6c0.2,0.3,0.3,0.5,0.3,0.6c0,0.1-0.1,0.2-0.4,0.2c-0.1,0-0.1,0.1-0.1,0.1
		c0,0.1,0,0.1,0.1,0.1c0.1,0,0.3,0,0.5,0c0.2,0,0.5,0,0.6,0c0.1,0,0.5,0,0.8,0c0.3,0,0.7,0,0.8,0c0.2,0,0.4,0,0.6,0
		c0.2,0,0.4,0,0.6,0c0.2,0,0.4,0,0.5,0c0.1,0,0.1,0,0.1-0.1C45.9,8.8,45.9,8.8,45.8,8.7L45.8,8.7z"/>
	<path fill="#CF0A2C" d="M22.1,8.7c-0.3,0-0.5-0.1-0.5-0.2c-0.1-0.1-0.1-0.3-0.1-0.6V6c0-0.4-0.1-0.8-0.4-1c-0.3-0.3-0.6-0.4-1-0.4
		c-0.4,0-0.8,0.2-1.3,0.7l0-0.6c0-0.1,0-0.1-0.1-0.1c0,0-0.1,0-0.1,0.1c-0.1,0.1-0.2,0.1-0.4,0.2c-0.2,0.1-0.5,0.2-0.8,0.3
		c-0.1,0-0.1,0-0.1,0.1c0,0.1,0,0.1,0.1,0.1c0.2,0,0.4,0.1,0.4,0.2c0.1,0.1,0.1,0.3,0.1,0.5v1.8c0,0.3,0,0.5-0.1,0.6
		c-0.1,0.1-0.3,0.2-0.5,0.2c-0.1,0-0.3,0-0.4-0.1c-0.1,0-0.2-0.1-0.2-0.1c-0.1-0.1-0.1-0.3-0.1-0.6V6c0-0.4-0.1-0.8-0.4-1
		c-0.3-0.3-0.6-0.4-1-0.4c-0.4,0-0.8,0.2-1.3,0.7l0-0.6c0-0.1,0-0.1-0.1-0.1c0,0-0.1,0-0.1,0.1c-0.1,0.1-0.2,0.1-0.4,0.2
		c-0.2,0.1-0.5,0.2-0.8,0.3c-0.1,0-0.1,0-0.1,0.1c0,0.1,0,0.1,0.1,0.1c0.2,0,0.4,0.1,0.4,0.2c0.1,0.1,0.1,0.3,0.1,0.5v1.8
		c0,0.3,0,0.5-0.1,0.6c-0.1,0.1-0.3,0.2-0.5,0.2c0,0-0.1,0-0.1,0c-0.3,0-0.5-0.1-0.5-0.2c-0.1-0.1-0.1-0.3-0.1-0.6V6.4
		c0-0.4,0-1,0.1-1.7c0-0.1,0-0.1-0.1-0.1c0,0-0.1,0-0.1,0.1c-0.1,0.1-0.2,0.1-0.4,0.2C10.6,5,10.3,5.1,10,5.2c-0.1,0-0.1,0-0.1,0.1
		c0,0.1,0,0.1,0.1,0.1c0.2,0,0.4,0.1,0.4,0.2c0.1,0.1,0.1,0.3,0.1,0.5v1.8c0,0.3,0,0.5-0.1,0.6c-0.1,0.1-0.3,0.2-0.5,0.2
		c-0.1,0-0.1,0.1-0.1,0.1C9.8,9,9.8,9,9.8,9c0.1,0,0.3,0,0.5,0c0.2,0,0.4,0,0.6,0c0.2,0,0.4,0,0.6,0c0.2,0,0.4,0,0.5,0h0.1
		c0.1,0,0.3,0,0.5,0c0.2,0,0.4,0,0.5,0c0.2,0,0.3,0,0.6,0c0.2,0,0.4,0,0.5,0c0.1,0,0.1,0,0.1-0.1c0-0.1,0-0.1-0.1-0.1
		c-0.2,0-0.4-0.1-0.4-0.2c-0.1-0.1-0.1-0.3-0.1-0.6V5.7c0.2-0.2,0.3-0.3,0.5-0.4c0.1-0.1,0.3-0.1,0.5-0.1c0.3,0,0.5,0.1,0.7,0.3
		c0.1,0.2,0.2,0.4,0.2,0.8v1.6c0,0.3,0,0.5-0.1,0.6c-0.1,0.1-0.2,0.2-0.4,0.2c-0.1,0-0.1,0.1-0.1,0.1C14.9,9,14.9,9,15,9
		c0.1,0,0.3,0,0.5,0c0.2,0,0.4,0,0.6,0c0.2,0,0.3,0,0.6,0c0,0,0,0,0.1,0c0.2,0,0.3,0,0.5,0h0.1c0.1,0,0.3,0,0.5,0c0,0,0,0,0,0
		c0.2,0,0.4,0,0.5,0c0.2,0,0.3,0,0.6,0c0.2,0,0.4,0,0.5,0c0.1,0,0.1,0,0.1-0.1c0-0.1,0-0.1-0.1-0.1c-0.2,0-0.4-0.1-0.4-0.2
		c-0.1-0.1-0.1-0.3-0.1-0.6V5.7c0.2-0.2,0.3-0.3,0.5-0.4c0.1-0.1,0.3-0.1,0.5-0.1c0.3,0,0.5,0.1,0.7,0.3c0.1,0.2,0.2,0.4,0.2,0.8
		v1.6c0,0.3,0,0.5-0.1,0.6c-0.1,0.1-0.2,0.2-0.4,0.2C20,8.8,20,8.8,20,8.9C20,9,20,9,20,9c0.1,0,0.3,0,0.5,0c0.2,0,0.4,0,0.6,0
		c0.2,0,0.3,0,0.6,0c0.2,0,0.4,0,0.5,0c0.1,0,0.1,0,0.1-0.1C22.2,8.8,22.2,8.8,22.1,8.7L22.1,8.7z"/>
	<path fill="#CF0A2C" d="M24.4,6.6c1-2.7,3.5-5,5.3-6.5c0,0,0,0,0,0c-0.2,0.2-0.4,0.4-0.6,0.6C29,0.8,28.7,1,28.5,1.3
		c-2.3,2.5-3.3,5.4-4.1,8.3c0,0-0.1,0-0.1,0c-0.6-0.9-1.3-1.6-2.1-2.4c0.3-0.5,0.7-0.9,1.1-1.4c0,0,0.1-0.1,0.1-0.1
		C23.5,5.7,24.4,6.6,24.4,6.6L24.4,6.6L24.4,6.6z"/>
	<path fill="#382616" d="M26.4,8.6L26.4,8.6c0.1,0,0.2,0,0.2-0.1c0,0,0-0.1-0.1-0.1c0,0,0,0-0.1,0V8.6L26.4,8.6z M26.4,8.9L26.4,8.9
		l-0.1-0.5c0,0,0.1,0,0.1,0c0.1,0,0.1,0,0.1,0c0,0,0,0.1,0,0.1c0,0.1,0,0.1-0.1,0.1v0c0,0,0.1,0,0.1,0.1c0,0.1,0,0.1,0,0.1h-0.1
		c0,0,0-0.1,0-0.1c0-0.1,0-0.1-0.1-0.1h-0.1V8.9L26.4,8.9z M26.5,8.3c-0.2,0-0.3,0.2-0.3,0.3c0,0.2,0.1,0.3,0.3,0.3
		c0.2,0,0.3-0.2,0.3-0.3C26.8,8.5,26.7,8.3,26.5,8.3L26.5,8.3L26.5,8.3z M26.5,8.2c0.2,0,0.4,0.2,0.4,0.4c0,0.2-0.2,0.4-0.4,0.4
		c-0.2,0-0.4-0.2-0.4-0.4C26.1,8.4,26.3,8.2,26.5,8.2L26.5,8.2L26.5,8.2z"/>
</g>
</svg>
